<?xml version="1.0" encoding="utf-8"?>
<!-- Generator: Adobe Illustrator 25.4.0, SVG Export Plug-In . SVG Version: 6.00 Build 0)  -->
<svg version="1.1" id="Layer_1" xmlns="http://www.w3.org/2000/svg" xmlns:xlink="http://www.w3.org/1999/xlink" x="0px" y="0px" width="250" height="90"
	 viewBox="0 0 40 40" style="enable-background:new 0 0 40 40;" xml:space="preserve">
<style type="text/css">
	.st0{clip-path:url(#SVGID_00000155840266750690858490000000291561941256993930_);}
	.st1{fill:#F7941D;}
	.st2{fill:#FFFFFF;}
	.st3{fill:#754C29;}
	.st4{fill:#F9CF93;}
	.st5{fill:#231F20;}
	.st6{fill:#D1D3D4;}
	.st7{clip-path:url(#SVGID_00000011033119447830688560000000346552541163886978_);}
	.st8{fill:#E6E7E8;}
	.st9{fill:#EFB160;}
	.st10{fill:#A7A9AC;}
	.st11{fill:#FFECD2;}
	.st12{fill:#B28364;}
	.st13{clip-path:url(#SVGID_00000082360514881016143870000012557107017288233879_);}
	.st14{fill:#DD626B;}
	.st15{fill:#1D2126;}
	.st16{clip-path:url(#SVGID_00000070078165066669302870000005108941250081884039_);}
	.st17{fill:#FF914D;}
</style>
<g>
	<defs>
		<rect id="SVGID_1_" x="4.62" y="9.12" width="28.72" height="28.72"/>
	</defs>
	<clipPath id="SVGID_00000098943359420167968270000017470876954258889104_">
		<use xlink:href="#SVGID_1_"  style="overflow:visible;"/>
	</clipPath>
	<g style="clip-path:url(#SVGID_00000098943359420167968270000017470876954258889104_);">
		<path class="st1" d="M33.32,23.48c0,0.32-0.01,0.64-0.03,0.96c-0.02,0.32-0.05,0.64-0.1,0.95c-0.04,0.32-0.1,0.63-0.16,0.95
			c-0.06,0.31-0.14,0.62-0.22,0.93c-0.08,0.31-0.18,0.61-0.28,0.92c-0.1,0.3-0.22,0.6-0.34,0.9c-0.12,0.29-0.26,0.58-0.4,0.87
			c-0.14,0.29-0.3,0.57-0.46,0.84c-0.16,0.28-0.33,0.55-0.52,0.81c-0.18,0.26-0.37,0.52-0.57,0.77c-0.2,0.25-0.4,0.5-0.62,0.73
			c-0.21,0.24-0.44,0.47-0.67,0.69c-0.23,0.22-0.47,0.44-0.71,0.64c-0.24,0.21-0.5,0.4-0.75,0.59c-0.26,0.19-0.52,0.37-0.79,0.54
			c-0.27,0.17-0.54,0.33-0.83,0.49c-0.14,0.08-0.29,0.16-0.44,0.23c-0.02,0.01-0.03,0.02-0.05,0.03c-0.99,0.5-2.03,0.87-3.11,1.13
			c-1.08,0.25-2.18,0.38-3.29,0.38c-0.39,0-0.78-0.02-1.17-0.05c-0.73-0.06-1.44-0.17-2.15-0.34l-0.05-0.01
			c-0.12-0.03-0.25-0.06-0.37-0.09l-0.05-0.01c-0.87-0.24-1.72-0.56-2.53-0.95l-0.06-0.03c-0.17-0.08-0.34-0.17-0.51-0.26
			c-0.19-0.1-0.37-0.21-0.56-0.32c-0.18-0.11-0.36-0.23-0.54-0.35c-0.18-0.12-0.35-0.24-0.53-0.37c-0.17-0.13-0.34-0.26-0.51-0.39
			c-0.17-0.13-0.33-0.27-0.49-0.42C9.31,34.1,9.15,33.95,9,33.8c-0.15-0.15-0.31-0.3-0.45-0.46c-0.15-0.16-0.29-0.32-0.43-0.48
			c-0.14-0.16-0.28-0.33-0.41-0.5c-0.13-0.17-0.26-0.34-0.39-0.51c-0.12-0.17-0.25-0.35-0.36-0.53c-0.12-0.18-0.23-0.36-0.34-0.55
			c-0.11-0.18-0.21-0.37-0.31-0.56c-0.1-0.19-0.2-0.38-0.29-0.58c-0.09-0.19-0.18-0.39-0.26-0.59c-0.08-0.2-0.16-0.4-0.24-0.6
			c-0.07-0.2-0.14-0.4-0.21-0.61c-0.07-0.2-0.13-0.41-0.18-0.62c-0.06-0.21-0.11-0.42-0.15-0.62c-0.05-0.21-0.09-0.42-0.13-0.63
			c-0.04-0.21-0.07-0.42-0.1-0.64c-0.03-0.21-0.05-0.43-0.07-0.64c-0.02-0.21-0.03-0.43-0.04-0.64c-0.01-0.21-0.01-0.43-0.01-0.64
			c0-0.21,0.01-0.43,0.02-0.64c0.01-0.21,0.03-0.43,0.05-0.64c0.02-0.21,0.05-0.43,0.08-0.64c0.03-0.21,0.06-0.42,0.1-0.64
			c0.04-0.21,0.08-0.42,0.13-0.63c0.05-0.21,0.1-0.42,0.16-0.62s0.12-0.41,0.19-0.62c0.07-0.2,0.14-0.41,0.22-0.61
			c0.05-0.13,0.1-0.25,0.15-0.38c0.01-0.01,0.01-0.03,0.02-0.04c0.11-0.26,0.22-0.52,0.35-0.77l0.02-0.04
			c0.06-0.11,0.11-0.23,0.17-0.33c0.01-0.01,0.01-0.03,0.02-0.04c0.53-1.01,1.18-1.94,1.93-2.79c0.75-0.85,1.6-1.61,2.53-2.26
			l0.02-0.02c0.01,0,0.01-0.01,0.02-0.01c0.12-0.09,0.25-0.17,0.38-0.25c0.58-0.38,1.18-0.71,1.8-1c0.63-0.29,1.27-0.53,1.93-0.73
			c0.66-0.2,1.33-0.34,2.01-0.44c0.68-0.1,1.37-0.15,2.06-0.15C26.9,9.12,33.32,15.55,33.32,23.48z"/>
	</g>
</g>
<path class="st2" d="M16.84,27.87l-0.09,0l-0.77,0.03c-0.03,0-0.06,0.01-0.09,0.03c-0.03,0.02-0.05,0.04-0.06,0.07
	c-0.02,0.04-1.76,4.18-0.59,9.35l-0.05-0.01c-0.87-0.24-1.72-0.56-2.53-0.95l-0.06-0.03c-0.09-0.18-0.15-0.37-0.19-0.57
	s-0.04-0.4-0.01-0.6c0.19-1.41,0.28-2.83,0.26-4.25c-0.04-3.02-2.21-5.87-2.64-6.41c-0.01-0.01-0.02-0.02-0.03-0.03l0.04-0.02
	c0.47-0.26,1.03-0.65,1.55-1.02c0.39-0.27,0.75-0.52,0.98-0.66c0.08-0.05,0.16-0.09,0.22-0.14c0.01-0.01,0.02-0.02,0.03-0.02
	l0.02,0.04l1.46,2.35l0.05,0.09c0.01,0.02,0.02,0.03,0.04,0.04c0.01,0.02,0.02,0.04,0.03,0.07c0.2,0.5,0.46,0.96,0.8,1.39
	c0.41,0.52,0.92,0.93,1.52,1.22L16.84,27.87z"/>
<path class="st3" d="M24.18,23.2l0.26-1.04c0.01-0.05,0.05-0.09,0.1-0.11c-0.17-0.02-0.35-0.04-0.52-0.08l0.09,1.1
	c0,0.01,0,0.02,0,0.03C24.14,23.13,24.16,23.16,24.18,23.2z"/>
<path class="st2" d="M12.41,22.51c0.39-0.22,0.62-0.46,0.62-0.64c0-0.08-0.05-0.15-0.15-0.22c-0.21,0.25-0.47,0.42-0.79,0.52
	c-0.02,0.01-0.04,0.01-0.06,0.01c-0.02,0-0.04-0.01-0.06-0.02c-0.02-0.01-0.04-0.02-0.05-0.04c-0.01-0.02-0.02-0.03-0.03-0.06
	c-0.01-0.02-0.01-0.04-0.01-0.06c0-0.02,0.01-0.04,0.01-0.06c0.01-0.02,0.02-0.04,0.04-0.05c0.02-0.01,0.03-0.03,0.05-0.03
	c0.54-0.19,0.79-0.54,0.75-0.73c-0.02-0.1-0.13-0.11-0.23-0.11c-0.34,0.01-1.84,0.96-3.73,2.35c-0.04,0.03-0.07,0.07-0.09,0.12
	c-0.02,0.05-0.02,0.1-0.01,0.15c0.01,0.06,0.04,0.07,0.05,0.07c0.07,0.02,0.37,0.04,1.36-0.73c0.02-0.01,0.04-0.02,0.06-0.03
	c0.02-0.01,0.04-0.01,0.07,0c0.02,0,0.04,0.01,0.06,0.02c0.02,0.01,0.04,0.03,0.05,0.04c0.01,0.02,0.02,0.04,0.03,0.06
	c0.01,0.02,0.01,0.04,0,0.07c0,0.02-0.01,0.04-0.02,0.06c-0.01,0.02-0.03,0.04-0.04,0.05c-0.51,0.4-0.87,0.61-1.12,0.71
	c-0.07,0.17-0.1,0.39-0.05,0.46c0.02,0.03,0.09,0.04,0.18,0.02c0.41-0.07,1.35-0.72,2.1-1.25C11.81,22.9,12.16,22.65,12.41,22.51z"
	/>
<path class="st4" d="M23.75,22.88l-0.08-0.96l0-0.04l-0.04-0.01c-0.04-0.01-0.08-0.03-0.12-0.04c-0.02-0.01-0.04-0.02-0.06-0.02
	c-0.04-0.02-0.09-0.03-0.13-0.05c-0.03-0.01-0.05-0.02-0.08-0.03c-0.03-0.01-0.07-0.03-0.1-0.05l-0.09-0.04
	c-0.03-0.01-0.06-0.03-0.08-0.04l-0.06-0.03c-0.04-0.02-0.08-0.04-0.11-0.06l-0.05-0.03c-0.05-0.03-0.09-0.06-0.14-0.08
	c-0.04-0.03-0.09-0.06-0.13-0.09c-0.04-0.03-0.09-0.06-0.13-0.09c-0.27-0.2-0.51-0.43-0.72-0.7l-0.03-0.04l-0.05,0.01
	c-0.56,0.13-1.07,0.1-1.55-0.09c-0.83-0.33-1.28-1.07-1.47-1.44c-0.47,0.38-1.83,1.37-3.36,1.61c-0.22,0.04-0.44,0.05-0.67,0.05
	c-0.04,0-0.08,0-0.12,0h-0.04c-0.03,0-0.05,0-0.08,0h-0.04c0,0.01,0,0.03,0,0.04c0,0.03,0,0.05-0.01,0.08
	c-0.02,0.31-0.04,0.68-0.03,1.08c0,0.08,0,0.17,0,0.25c0,0.05,0,0.11,0.01,0.17c0,0.05,0,0.09,0.01,0.13c0,0.04,0.01,0.11,0.01,0.16
	l0.01,0.16c0.01,0.07,0.01,0.14,0.02,0.22c0,0.01,0,0.01,0,0.02c0.02,0.14,0.03,0.28,0.05,0.43c0.01,0.04,0.01,0.08,0.02,0.12
	c0.01,0.04,0.02,0.1,0.03,0.15c0.01,0.07,0.03,0.15,0.04,0.22c0.01,0.07,0.03,0.13,0.04,0.2c0.01,0.07,0.03,0.12,0.05,0.19
	c0.03,0.1,0.05,0.21,0.09,0.31c0.01,0.05,0.03,0.1,0.05,0.15c0.01,0.03,0.02,0.07,0.04,0.1c0.01,0.03,0.02,0.05,0.03,0.08
	c0,0.01,0.01,0.02,0.01,0.03c0.01,0.03,0.02,0.05,0.03,0.08c0.01,0.01,0.01,0.03,0.02,0.04c0.05,0.13,0.11,0.27,0.17,0.4
	c0.02,0.04,0.04,0.08,0.06,0.13c0.02,0.04,0.03,0.07,0.05,0.1c0.01,0.03,0.03,0.06,0.04,0.08c0.1,0.19,0.21,0.36,0.34,0.54
	l0.05,0.07l0.05,0.07c0.03,0.04,0.06,0.07,0.09,0.11l0.05,0.05c0.02,0.03,0.05,0.06,0.07,0.08c0.03,0.03,0.05,0.05,0.07,0.07
	c0.01,0.01,0.01,0.02,0.02,0.02c0.03,0.03,0.06,0.06,0.09,0.09c0.02,0.02,0.04,0.04,0.06,0.05c0.02,0.02,0.02,0.02,0.03,0.03
	c0,0,0.01,0.01,0.01,0.01c0.02,0.02,0.05,0.04,0.07,0.06l0,0c0.04,0.03,0.08,0.07,0.12,0.1l0.05,0.04c0.03,0.02,0.06,0.04,0.09,0.07
	c0.03,0.02,0.05,0.04,0.08,0.06c0.06,0.04,0.11,0.08,0.17,0.11l0.07,0.04c0.01,0.01,0.01,0.01,0.02,0.01
	c0.03,0.02,0.05,0.03,0.08,0.04l0.07,0.04c0,0,0.01,0,0.01,0.01c0.03,0.01,0.05,0.03,0.08,0.04l0.04,0.02
	c0.04,0.02,0.07,0.04,0.11,0.05c0.02,0.01,0.04,0.02,0.06,0.02c0.02,0.01,0.04,0.02,0.06,0.03c0.03,0.01,0.06,0.03,0.09,0.04l0.01,0
	c0.03,0.01,0.06,0.02,0.09,0.03h0c0.02,0.01,0.04,0.02,0.06,0.02c0.02,0.01,0.06,0.02,0.09,0.03l0.07,0.02c0,0,0.01,0,0.01,0
	c0.04,0.01,0.09,0.03,0.13,0.04h0.01c0.04,0,0.07,0.01,0.1,0.03l0.08,0.02c0.05,0.01,0.11,0.02,0.17,0.03l0.07,0.01
	c0.04,0.01,0.09,0.02,0.13,0.02c0.01,0,0.02,0,0.03,0.01c0.04,0.01,0.08,0.01,0.12,0.02c0.07,0.01,0.14,0.02,0.21,0.02
	c0.04,0,0.07,0.01,0.11,0.01h0.02c0.03,0,0.07,0.01,0.1,0.01c0.03,0,0.08,0.01,0.12,0.01c0.26,0.01,0.51,0.01,0.77,0l0.11-0.01
	c0.15-0.01,0.29-0.03,0.43-0.05c0.04-0.01,0.07-0.01,0.11-0.02l0.1-0.02l0.09-0.02l0.08-0.02l0.07-0.02l0.07-0.02l0.1-0.03l0.1-0.03
	l0.07-0.02l-0.07-0.02c-0.02-0.01-0.04-0.01-0.06-0.02l-0.06-0.02c-0.1-0.04-0.19-0.08-0.29-0.13c-0.01-0.01-0.02-0.01-0.03-0.02
	c-0.05-0.03-0.08-0.05-0.1-0.06c-0.03-0.01-0.05-0.03-0.07-0.04l-0.01-0.01c-0.02-0.01-0.04-0.03-0.06-0.04l-0.02-0.02l-0.01,0
	c-0.02-0.01-0.03-0.03-0.05-0.04l-0.01-0.01c-0.02-0.02-0.04-0.04-0.06-0.06c-0.09-0.11-0.17-0.24-0.22-0.38
	c-0.05-0.14-0.07-0.28-0.07-0.43c0-0.45,0.22-0.84,0.54-1c0.03-0.01,0.06-0.02,0.09-0.03l-0.01-0.01c-0.04-0.1-0.07-0.26,0.04-0.47
	c0.15-0.3,0.45-0.5,0.85-0.58c0.24-0.05,0.49-0.04,0.73,0.01l0.05,0.01c0-0.02-0.01-0.03-0.01-0.05c-0.13-0.45-0.26-1.18,0.07-1.59
	c0.07-0.1,0.16-0.15,0.28-0.16c0.06-0.01,0.11,0,0.17,0.03l0.03,0.01l0.02,0.01l0.03,0.02c0.01,0.01,0.03,0.02,0.04,0.03
	c0.01,0.01,0.03,0.02,0.04,0.03c0.02,0.02,0.05,0.05,0.07,0.08c0.09,0.12,0.17,0.25,0.22,0.39c0.01,0.02,0.02,0.04,0.03,0.06
	s0.02,0.06,0.03,0.09c0.01,0.02,0.01,0.04,0.02,0.06c0.01-0.02,0.02-0.04,0.03-0.07c0.01-0.02,0.02-0.04,0.03-0.06
	c0.01-0.02,0.02-0.04,0.03-0.06c0.01-0.02,0.02-0.03,0.03-0.05c0.02-0.03,0.04-0.05,0.06-0.07c0.01-0.01,0.02-0.02,0.03-0.03
	c0.03-0.03,0.06-0.05,0.09-0.07c0.01-0.01,0.02-0.01,0.03-0.01l0.03-0.01c0.02,0,0.03-0.01,0.05-0.01c0.01,0,0.03-0.01,0.04-0.01h0
	c0.02,0,0.03,0,0.05,0c0.01,0,0.03,0,0.04,0L23.75,22.88z M18,24.42l1.59,0.02c0.04,0,0.08,0.01,0.11,0.04
	c0.03,0.03,0.05,0.06,0.06,0.1c0.02,0.1,0.16,1.01-0.18,1.44c-0.05,0.07-0.12,0.12-0.19,0.16c-0.08,0.04-0.16,0.06-0.24,0.07h-0.07
	c-0.97,0-1.24-1.58-1.25-1.65c-0.01-0.05,0-0.1,0.04-0.14C17.9,24.44,17.94,24.42,18,24.42L18,24.42z"/>
<path class="st3" d="M14.26,20.28c1.67,0.12,3.38-1.05,3.99-1.52c-0.63,0.01-1.26,0.08-1.88,0.21c-0.62,0.13-1.22,0.33-1.8,0.58
	c-0.07,0.03-0.15,0.05-0.23,0.06c0,0.02,0,0.04,0,0.07C14.33,19.68,14.29,19.9,14.26,20.28z"/>
<path class="st5" d="M19.08,25.93h0.04c0.08,0,0.15-0.04,0.19-0.1c0.18-0.23,0.16-0.74,0.13-1.04l-1.24-0.02
	C18.3,25.14,18.57,25.93,19.08,25.93z"/>
<path class="st4" d="M11.66,21.01l-1.34-2.78v-0.01c0-0.01,0-0.01-0.01-0.02c0,0,0-0.01,0-0.02c0-0.01,0-0.01,0-0.02
	c0-0.01,0-0.01,0-0.02c0,0,0-0.01,0-0.01c0,0,0,0,0-0.01c0-0.01,0-0.01,0-0.02c0-0.13-0.02-0.43-0.17-0.58
	c-0.08-0.08-0.19-0.11-0.34-0.09c-0.15,0.02-0.25,0.07-0.31,0.16c-0.1,0.15-0.06,0.4-0.03,0.48c0,0,0,0,0,0.01c0,0.01,0,0.01,0,0.02
	c0,0.01,0,0.01,0,0.01c0,0,0,0.01,0,0.01c0,0,0,0.01,0,0.01c0,0,0,0.01,0,0.01c0,0,0,0.01,0,0.02c0,0.01,0,0.01,0,0.01
	c0,0.01-0.01,0.01-0.01,0.02l0,0.01c0,0.01-0.01,0.01-0.01,0.02l-0.01,0.01c-0.01,0.01-0.01,0.01-0.02,0.02L9.4,18.28
	c-0.01,0-0.01,0.01-0.02,0.01l-0.01,0c-0.01,0-0.01,0.01-0.02,0.01H9.34c-0.01,0-0.01,0-0.02,0H9.3l-2.37,0.02l1.48,1.43
	c0.01,0.01,0.02,0.03,0.03,0.05l1.24,2.49C10.36,21.82,11.09,21.33,11.66,21.01z"/>
<path class="st6" d="M11.92,14.04c-0.02-0.27-0.01-0.54,0.04-0.81c0.05-0.27,0.13-0.52,0.25-0.77c-0.24-0.19-0.5-0.35-0.77-0.5
	c-0.27-0.14-0.55-0.27-0.84-0.36c-0.29-0.1-0.59-0.17-0.89-0.22c-0.3-0.05-0.61-0.07-0.91-0.07c-0.18,0-0.36,0.01-0.54,0.03
	c-0.18,0.02-0.36,0.04-0.54,0.08c-0.18,0.03-0.35,0.08-0.53,0.13c-0.17,0.05-0.34,0.11-0.51,0.18c-0.17,0.07-0.33,0.14-0.49,0.23
	c-0.16,0.08-0.32,0.18-0.47,0.28c-0.15,0.1-0.3,0.21-0.44,0.32C5.14,12.67,5,12.79,4.87,12.92c-0.13,0.13-0.25,0.26-0.37,0.4
	c-0.12,0.14-0.23,0.28-0.33,0.43c-0.1,0.15-0.2,0.3-0.29,0.46c-0.09,0.16-0.17,0.32-0.24,0.49c-0.07,0.17-0.14,0.34-0.19,0.51
	c-0.06,0.17-0.1,0.35-0.14,0.52c-0.04,0.18-0.07,0.36-0.09,0.54s-0.04,0.36-0.04,0.54H13.4C12.92,16.34,12.04,15.32,11.92,14.04z"/>
<path class="st6" d="M9.85,11.08c-0.01-0.07-0.02-0.13-0.03-0.19c-0.02-0.06-0.04-0.13-0.07-0.19c-0.03-0.06-0.06-0.12-0.1-0.17
	s-0.08-0.1-0.13-0.15c-0.05-0.05-0.1-0.09-0.16-0.12c-0.06-0.04-0.11-0.06-0.18-0.09c-0.06-0.02-0.12-0.04-0.19-0.05
	C8.93,10.1,8.86,10.1,8.8,10.1s-0.13,0.01-0.2,0.02c-0.07,0.01-0.13,0.03-0.19,0.05c-0.06,0.02-0.12,0.05-0.18,0.09
	c-0.06,0.04-0.11,0.08-0.16,0.12c-0.05,0.05-0.09,0.09-0.13,0.15c-0.04,0.05-0.07,0.11-0.1,0.17c-0.03,0.06-0.05,0.12-0.07,0.19
	c-0.02,0.06-0.03,0.13-0.03,0.19C8.45,10.95,9.15,10.95,9.85,11.08z"/>
<path class="st6" d="M10.37,17.3c0.2,0.19,0.25,0.48,0.27,0.67h2.77c-0.02-0.14-0.01-0.29,0.02-0.43c0.03-0.14,0.08-0.27,0.15-0.4
	H10.1C10.2,17.17,10.29,17.22,10.37,17.3z"/>
<path class="st6" d="M9.2,17.43c0.05-0.07,0.11-0.13,0.18-0.18c0.07-0.05,0.15-0.08,0.24-0.1h-8.7v0.85h5.59l2.58-0.02
	C9.07,17.78,9.1,17.6,9.2,17.43z"/>
<path class="st4" d="M25.65,21.98c-0.3-0.04-0.61,0.08-0.85,0.34c-0.02,0.02-0.04,0.03-0.07,0.04l-0.52,2.07
	c-0.01,0.02-0.02,0.04-0.03,0.06c-0.09,0.38-0.19,0.76-0.32,1.13c0.24-0.35,0.44-0.72,0.62-1.1c0.01-0.02,0.02-0.04,0.04-0.06l0,0
	c0.02-0.02,0.03-0.03,0.05-0.04c0.02-0.01,0.04-0.01,0.06-0.01c0.02,0,0.04,0,0.06,0.01c0.02,0.01,0.04,0.02,0.05,0.04
	c0.14,0.14,0.3,0.23,0.49,0.26c0.27,0.04,0.55-0.06,0.78-0.28c0.13-0.13,0.23-0.27,0.31-0.43c0.08-0.16,0.13-0.33,0.15-0.51
	C26.61,22.75,26.22,22.06,25.65,21.98z"/>
<g>
	<defs>
		<rect id="SVGID_00000099656724720567986330000001628690462963023536_" x="15.07" y="27.85" width="10.45" height="9.99"/>
	</defs>
	<clipPath id="SVGID_00000119103048317193163210000002952253112770661253_">
		<use xlink:href="#SVGID_00000099656724720567986330000001628690462963023536_"  style="overflow:visible;"/>
	</clipPath>
	<g style="clip-path:url(#SVGID_00000119103048317193163210000002952253112770661253_);">
		<path class="st2" d="M25.43,36.3c-0.02,0.01-0.03,0.02-0.05,0.03c-0.99,0.5-2.03,0.87-3.11,1.13c-1.08,0.25-2.18,0.38-3.29,0.38
			c-0.39,0-0.78-0.02-1.17-0.05c-0.73-0.06-1.44-0.17-2.15-0.34l-0.05-0.01c-1.12-4.69,0.24-8.56,0.49-9.21l1.45-0.06l0.15-0.01
			l0.12,0.03c0.38,0.09,0.76,0.14,1.15,0.15c0.1,0,0.21,0.01,0.31,0.01c0.81,0.01,1.59-0.14,2.34-0.44l0.09-0.04h0.08l0.01,0.01
			l0.01,0.01l0.03,0.03l0.61,0.57l0.03,0.03c-0.01,0.01-0.02,0.02-0.03,0.03c-0.13,0.13-0.25,0.25-0.36,0.37l-0.06,0.06
			c-0.04,0.04-0.07,0.08-0.09,0.13c-0.03,0.05-0.04,0.1-0.05,0.15c-0.01,0.05-0.01,0.11-0.01,0.16c0,0.05,0.02,0.11,0.03,0.16
			c0.02,0.07,0.06,0.12,0.11,0.17c0.05,0.05,0.11,0.08,0.18,0.09c0.03,0.01,0.05,0.01,0.08,0.01h0.01c0.01,0,0.03,0,0.04,0
			c0,0.01,0,0.03,0,0.04c0,0.15,0.02,0.33,0.13,0.46l0.02,0.02c0.08,0.07,0.17,0.1,0.27,0.1c0.07,0,0.14-0.01,0.2-0.03
			c0.11-0.04,0.22-0.1,0.32-0.17l0.04-0.03c0,0.02,0,0.03,0,0.05c0,0.02,0.01,0.03,0.02,0.05c0.04,0.07,0.71,1.13,1.57,1.86
			c0.01,0.01,0.03,0.03,0.05,0.04l0.01,0.06l0.54,3.12C25.54,35.7,25.52,36.01,25.43,36.3z"/>
	</g>
</g>
<path class="st8" d="M23.65,26.44l0.52,0.47c0.33-0.28,0.62-0.5,0.82-0.57c-0.31-0.15-0.62-0.29-0.94-0.41
	C23.93,26.11,23.79,26.28,23.65,26.44z"/>
<path class="st2" d="M26,27.29c0.03,0.21-0.07,0.45-0.29,0.69c0.29,0.16,1.36,0.8,1.79,1.85c0.01,0.02,0.01,0.04,0.01,0.06
	c0,0.02,0,0.04-0.01,0.06c-0.01,0.02-0.02,0.04-0.04,0.05c-0.02,0.02-0.03,0.03-0.05,0.04c-0.02,0.01-0.04,0.01-0.06,0.01
	c-0.03,0-0.07-0.01-0.09-0.03c-0.03-0.02-0.05-0.04-0.06-0.08c-0.43-1.06-1.68-1.71-1.69-1.71c-0.01-0.01-0.02-0.01-0.03-0.02
	l-0.02,0.02c-0.18,0.15-0.46,0.42-0.75,0.71c-0.4,0.39-0.82,0.81-1.19,1.1c0.05,0.01,0.08,0.03,0.11,0.08
	c0.01,0.02,1.46,2.34,2.74,2.38c0.51,0.02,0.93-0.17,1.22-0.53c0.49-0.61,0.58-1.66,0.25-2.95c-0.25-1-1.26-1.79-2.17-2.33
	c0.01,0.05,0.01,0.1,0,0.15C25.91,26.98,25.99,27.16,26,27.29z"/>
<path class="st3" d="M25.02,21.75c0.08-0.04,0.16-0.06,0.25-0.08c-2.29-2.09-4.55-2.8-6.45-2.9c0.15,0.3,0.56,1.01,1.31,1.32
	c0.61,0.25,1.32,0.18,2.12-0.2c0.02-0.01,0.04-0.02,0.06-0.02c0.02,0,0.05,0,0.07,0.01c0.02,0.01,0.04,0.02,0.06,0.03
	c0.02,0.01,0.03,0.03,0.04,0.05c0.01,0.02,0.02,0.04,0.02,0.07c0,0.02,0,0.05-0.01,0.07c-0.01,0.02-0.02,0.04-0.04,0.06
	c-0.02,0.02-0.03,0.03-0.06,0.04c-0.15,0.07-0.3,0.13-0.45,0.19c0.33,0.4,1.3,1.33,3,1.36C24.97,21.73,25,21.74,25.02,21.75z"/>
<path class="st2" d="M27.5,15.96c-0.14,0.61-0.52,1.33-1.3,2.12c-0.02,0.02-0.03,0.03-0.05,0.04c-0.02,0.01-0.04,0.02-0.07,0.02
	c-0.02,0-0.05,0-0.07-0.01c-0.02-0.01-0.04-0.02-0.06-0.04c-0.02-0.02-0.03-0.03-0.04-0.06c-0.01-0.02-0.01-0.04-0.01-0.07
	c0-0.02,0.01-0.05,0.01-0.07c0.01-0.02,0.02-0.04,0.04-0.06c1.19-1.21,1.56-2.44,1.06-3.46c-0.61-1.24-2.44-1.98-4.35-1.74
	c-1.42,0.18-2.84,0.19-4.26,0.03c-0.43-0.05-1.7-0.24-1.82-0.42c-0.02-0.03-0.03-0.06-0.03-0.09c0-0.03,0.01-0.06,0.02-0.09
	c0.01-0.02,0.03-0.04,0.04-0.05c0.02-0.01,0.04-0.02,0.06-0.03c0.02-0.01,0.04-0.01,0.07,0c0.02,0,0.04,0.01,0.06,0.02
	c0.01,0,0.02,0.01,0.02,0.02c0.15,0.06,1.02,0.29,2.36,0.38c-0.6-0.6-2.15-1.75-3.73-1.77c-0.93-0.01-1.74,0.37-2.4,1.12
	c-0.19,0.22-0.36,0.46-0.5,0.72c0,0.01-0.01,0.01-0.01,0.02c-0.12,0.23-0.21,0.47-0.26,0.73c-0.05,0.26-0.07,0.51-0.04,0.77
	c0.13,1.48,1.45,2.64,1.63,2.79c0.07-0.06,0.15-0.11,0.23-0.15c3.26-1.75,7.26-0.12,7.43-0.05c0.02,0.01,0.04,0.02,0.05,0.04
	c0.02,0.02,0.03,0.03,0.04,0.05c0.01,0.02,0.01,0.04,0.01,0.06c0,0.02,0,0.04-0.01,0.06c-0.01,0.02-0.02,0.04-0.04,0.05
	c-0.02,0.02-0.03,0.03-0.06,0.04c-0.02,0.01-0.04,0.01-0.06,0.01c-0.02,0-0.04,0-0.06-0.01c-0.04-0.02-4.02-1.64-7.14,0.03
	c-0.61,0.33-0.69,0.85-0.31,1.88c0.09,0.24,0.18,0.38,0.27,0.42c0.06,0.02,0.13,0.02,0.18-0.02c0.7-0.3,1.43-0.52,2.18-0.65
	c0.75-0.13,1.51-0.18,2.27-0.14c2.47,0.14,4.79,1.23,6.87,3.22c0.26,0.05,0.48,0.18,0.66,0.38c0.41-0.28,0.6-0.58,0.59-0.94
	c-0.02-1.17-2.11-2.44-2.13-2.46c-0.02-0.01-0.03-0.03-0.05-0.04c-0.01-0.02-0.02-0.04-0.03-0.06c0-0.02-0.01-0.04,0-0.07
	c0-0.02,0.01-0.04,0.02-0.06c0.01-0.02,0.03-0.03,0.04-0.05c0.02-0.01,0.04-0.02,0.06-0.03c0.02-0.01,0.04-0.01,0.06,0
	c0.02,0,0.04,0.01,0.06,0.02c0.08,0.05,1.61,0.98,2.12,2.08c1.02,0.26,1.74,0.08,2.2-0.55c0.51-0.71,0.67-1.37,0.47-1.97
	C29.46,16.75,27.9,16.11,27.5,15.96z"/>
<path class="st2" d="M22.27,29.21c-0.03,0.03-0.05,0.07-0.06,0.11c-0.01,0.04-0.01,0.09,0.01,0.13c0.02,0.04,0.03,0.05,0.04,0.05
	c0.04,0.01,0.29,0.01,1.04-0.81c0.01-0.02,0.03-0.03,0.05-0.04c0.02-0.01,0.04-0.01,0.06-0.02c0.02,0,0.04,0,0.06,0.01
	c0.02,0.01,0.04,0.02,0.06,0.03c0.02,0.01,0.03,0.03,0.04,0.05c0.01,0.02,0.01,0.04,0.02,0.06c0,0.02,0,0.04-0.01,0.07
	s-0.02,0.04-0.03,0.06c-0.38,0.42-0.66,0.65-0.86,0.78c-0.03,0.16-0.04,0.36,0.02,0.41c0.02,0.02,0.07,0.01,0.13-0.01
	c0.33-0.11,1.08-0.84,1.62-1.38c0.31-0.31,0.58-0.57,0.78-0.73c0.3-0.24,0.46-0.49,0.44-0.64c-0.02-0.07-0.06-0.13-0.13-0.16
	c-0.15,0.24-0.35,0.43-0.6,0.55c-0.02,0.01-0.04,0.02-0.06,0.02c-0.02,0-0.05,0-0.07,0c-0.02-0.01-0.04-0.02-0.06-0.03
	c-0.02-0.01-0.03-0.03-0.04-0.05c-0.01-0.02-0.02-0.04-0.02-0.06c0-0.02,0-0.05,0.01-0.07c0.01-0.02,0.02-0.04,0.03-0.06
	c0.02-0.02,0.03-0.03,0.05-0.04c0.43-0.23,0.59-0.58,0.53-0.73c-0.02-0.06-0.08-0.08-0.18-0.06C24.86,26.69,23.7,27.72,22.27,29.21z
	"/>
<path class="st9" d="M21.39,26.53c0.05,0.07,0.1,0.12,0.17,0.17c0.07,0.04,0.15,0.07,0.23,0.08c0.06,0.01,0.11,0,0.17-0.02
	c0.06-0.02,0.1-0.05,0.14-0.09c0.13-0.13,0.19-0.34,0.16-0.61c0-0.08-0.03-0.16-0.09-0.21c-0.08-0.07-0.23-0.06-0.3-0.05
	c-0.19,0.03-0.38,0.03-0.57,0.01c0.03,0.11,0.03,0.21,0.01,0.32c-0.02,0.07-0.02,0.14,0,0.21C21.32,26.41,21.35,26.48,21.39,26.53z"
	/>
<path class="st4" d="M22.51,27.67c-0.09,0.06-0.19,0.1-0.29,0.13l0.5,0.47c0.39-0.39,0.81-0.8,1.2-1.14l-0.6-0.53
	c-0.02,0.03-0.05,0.06-0.09,0.07c-0.04,0.01-0.08,0.01-0.12,0c-0.04-0.02-0.07-0.04-0.09-0.08c-0.02-0.04-0.02-0.08-0.01-0.11
	c0.19-0.8-0.17-1.31-0.51-1.6c-0.22-0.19-0.66-0.27-1.03-0.2c-0.2,0.04-0.48,0.14-0.61,0.4c-0.04,0.06-0.05,0.11-0.03,0.18
	c0.03,0.07,0.16,0.14,0.34,0.19c0.21,0.05,0.43,0.06,0.65,0.03c0.23-0.03,0.42,0.01,0.56,0.12c0.07,0.06,0.12,0.12,0.16,0.2
	c0.04,0.08,0.06,0.16,0.06,0.25c0.04,0.37-0.06,0.68-0.26,0.88c-0.08,0.08-0.17,0.13-0.27,0.17c-0.1,0.04-0.21,0.05-0.32,0.03
	c-0.13-0.02-0.25-0.06-0.36-0.13c-0.11-0.07-0.2-0.16-0.28-0.26c-0.07-0.1-0.11-0.2-0.14-0.32c-0.02-0.12-0.02-0.23,0-0.35
	c0.01-0.05,0.01-0.09,0-0.14c-0.02-0.05-0.04-0.08-0.08-0.11c-0.1-0.08-0.25-0.09-0.3-0.07c-0.21,0.11-0.35,0.39-0.36,0.71
	c0,0.16,0.03,0.54,0.4,0.74l0.01,0.01c0.01,0,0.49,0.31,1.01,0.34c0.04-0.02,0.09-0.02,0.13,0c0.19,0,0.37-0.05,0.53-0.15
	c0.02-0.01,0.04-0.02,0.06-0.02c0.02,0,0.04,0,0.07,0c0.02,0.01,0.04,0.01,0.06,0.03s0.03,0.03,0.05,0.05s0.02,0.04,0.02,0.06
	c0,0.02,0,0.04,0,0.07c-0.01,0.02-0.01,0.04-0.03,0.06C22.54,27.64,22.53,27.66,22.51,27.67L22.51,27.67z"/>
<path class="st9" d="M23.83,23.3c-0.1-0.07-0.15-0.04-0.16-0.03c-0.17,0.09-0.26,0.62-0.27,0.95c0.07,0.49,0.07,0.99,0.02,1.49
	c0,0.03-0.01,0.06-0.03,0.08c0.01,0.04,0.01,0.08,0.01,0.12C23.84,24.71,24.12,23.48,23.83,23.3z"/>
<path class="st4" d="M22.73,24.62c0.15,0.13,0.28,0.28,0.39,0.45c0.01-1-0.25-1.85-0.48-2.11c-0.05-0.06-0.08-0.07-0.09-0.07
	c-0.02,0.01-0.03,0.02-0.04,0.04c-0.28,0.36-0.05,1.23,0.09,1.6C22.64,24.55,22.69,24.59,22.73,24.62z"/>
<path class="st10" d="M12.02,12.96c0.05-0.17,0.11-0.33,0.18-0.49c-0.46-0.35-0.96-0.62-1.5-0.82
	C10.71,11.65,11.52,12.16,12.02,12.96z"/>
<path class="st10" d="M13.4,16.81c-0.35-0.34-0.91-0.98-1.24-1.8c-0.7,0.97-2.94,1.55-5.73,1.8H13.4z"/>
<path class="st2" d="M10.71,11.65c-0.1-0.04-0.21-0.07-0.32-0.1c-0.11-0.03-0.21-0.06-0.32-0.08c-0.11-0.02-0.22-0.05-0.33-0.07
	c-0.11-0.02-0.22-0.03-0.33-0.05c-0.11-0.01-0.22-0.02-0.33-0.03c-0.11-0.01-0.22-0.01-0.33-0.01c-0.11,0-0.22,0.01-0.33,0.01
	c-0.11,0.01-0.22,0.02-0.33,0.03c-0.11,0.01-0.22,0.03-0.33,0.05c-0.11,0.02-0.22,0.04-0.32,0.07c-0.11,0.03-0.21,0.06-0.32,0.09
	c-0.11,0.03-0.21,0.07-0.31,0.11c-0.1,0.04-0.21,0.08-0.31,0.13c-0.1,0.05-0.2,0.09-0.3,0.15C6.1,12.01,6,12.07,5.91,12.12
	c-0.1,0.06-0.19,0.12-0.28,0.18c-0.09,0.06-0.18,0.13-0.27,0.2s-0.17,0.14-0.26,0.21c-0.08,0.07-0.16,0.15-0.24,0.23
	c-0.08,0.08-0.16,0.16-0.23,0.24c-0.07,0.08-0.15,0.17-0.22,0.25c-0.07,0.09-0.14,0.18-0.2,0.27c-0.06,0.09-0.13,0.18-0.18,0.28
	c-0.06,0.09-0.11,0.19-0.17,0.29c-0.05,0.1-0.1,0.2-0.15,0.3c-0.05,0.1-0.09,0.2-0.13,0.31c-0.04,0.1-0.08,0.21-0.11,0.31
	c-0.04,0.1-0.07,0.21-0.1,0.32c-0.03,0.11-0.05,0.21-0.08,0.32c-0.02,0.11-0.04,0.22-0.06,0.33c-0.02,0.11-0.03,0.22-0.04,0.33
	c-0.01,0.11-0.02,0.22-0.02,0.33h0.39C4.78,10.64,10.7,11.65,10.71,11.65z"/>
<path class="st2" d="M9.7,11.59c0.01,0.04,0,0.07-0.01,0.11c-0.02,0.04-0.04,0.08-0.08,0.12c-0.04,0.04-0.08,0.08-0.14,0.12
	c-0.06,0.04-0.12,0.08-0.19,0.12c-0.07,0.04-0.15,0.08-0.24,0.11c-0.09,0.04-0.18,0.07-0.28,0.1c-0.1,0.03-0.2,0.06-0.31,0.09
	c-0.11,0.03-0.21,0.05-0.32,0.07c-0.11,0.02-0.22,0.03-0.33,0.05c-0.11,0.01-0.21,0.02-0.32,0.02c-0.1,0-0.2,0-0.3,0
	c-0.09,0-0.18-0.01-0.26-0.02c-0.08-0.01-0.16-0.03-0.22-0.05c-0.07-0.02-0.12-0.04-0.17-0.07c-0.05-0.03-0.09-0.06-0.11-0.09
	c-0.03-0.03-0.04-0.07-0.05-0.1c-0.01-0.04,0-0.07,0.01-0.11c0.02-0.04,0.04-0.08,0.08-0.12c0.04-0.04,0.08-0.08,0.14-0.12
	s0.12-0.08,0.19-0.12c0.07-0.04,0.15-0.08,0.24-0.11c0.09-0.04,0.18-0.07,0.28-0.1c0.1-0.03,0.2-0.06,0.31-0.09
	c0.11-0.03,0.21-0.05,0.32-0.07c0.11-0.02,0.22-0.03,0.33-0.05c0.11-0.01,0.21-0.02,0.32-0.02c0.1,0,0.2,0,0.3,0
	c0.09,0,0.18,0.01,0.26,0.02c0.08,0.01,0.16,0.03,0.22,0.05c0.07,0.02,0.12,0.04,0.17,0.07c0.05,0.03,0.09,0.06,0.11,0.09
	C9.68,11.52,9.69,11.55,9.7,11.59z"/>
<path class="st2" d="M6.91,13.13c0,0.05-0.01,0.09-0.03,0.14s-0.05,0.08-0.09,0.12c-0.04,0.03-0.09,0.06-0.14,0.08
	c-0.05,0.02-0.11,0.03-0.17,0.03s-0.11-0.01-0.17-0.03c-0.05-0.02-0.1-0.04-0.14-0.08c-0.04-0.03-0.07-0.07-0.09-0.12
	s-0.03-0.09-0.03-0.14c0-0.05,0.01-0.09,0.03-0.14c0.02-0.04,0.05-0.08,0.09-0.12c0.04-0.03,0.09-0.06,0.14-0.08
	c0.05-0.02,0.11-0.03,0.17-0.03s0.11,0.01,0.17,0.03c0.05,0.02,0.1,0.05,0.14,0.08c0.04,0.03,0.07,0.07,0.09,0.12
	C6.9,13.03,6.91,13.08,6.91,13.13z"/>
<path class="st10" d="M9.31,10.23c0,0,0.36,0.68-1.03,0.77c-1.39,0.1,1.57,0.15,1.56,0.2c0,0.05,0.17-0.24,0.17-0.24l-0.48-0.55
	L9.31,10.23z"/>
<path class="st2" d="M9.31,10.23c0,0-1.1-0.23-1.39,0.82c0,0-0.35,0.21-0.35,0.16c-0.01-0.14-0.01-0.27,0-0.41
	c0.02-0.1,0.29-0.45,0.34-0.5c0.05-0.05,0.63-0.47,0.63-0.47S8.82,9.7,8.97,9.77c0.15,0.07,0.4,0.15,0.44,0.24
	c0.03,0.07,0.08,0.13,0.15,0.17L9.31,10.23z"/>
<path class="st2" d="M8.93,10.32c0,0.03-0.01,0.06-0.02,0.09c-0.01,0.03-0.03,0.05-0.05,0.07c-0.02,0.02-0.05,0.04-0.08,0.05
	c-0.03,0.01-0.06,0.02-0.09,0.02c-0.03,0-0.06-0.01-0.09-0.02s-0.05-0.03-0.07-0.05c-0.02-0.02-0.04-0.05-0.05-0.07
	c-0.01-0.03-0.02-0.06-0.02-0.09c0-0.03,0.01-0.06,0.02-0.09c0.01-0.03,0.03-0.05,0.05-0.08c0.02-0.02,0.05-0.04,0.07-0.05
	c0.03-0.01,0.06-0.02,0.09-0.02c0.03,0,0.06,0.01,0.09,0.02c0.03,0.01,0.05,0.03,0.08,0.05c0.02,0.02,0.04,0.05,0.05,0.08
	C8.93,10.26,8.93,10.29,8.93,10.32z"/>
<path class="st8" d="M24.88,18.63c-0.02-0.01-0.03-0.03-0.05-0.04c-0.01-0.02-0.02-0.04-0.03-0.06c0-0.02-0.01-0.04,0-0.07
	c0-0.02,0.01-0.04,0.02-0.06c0.01-0.02,0.03-0.03,0.04-0.05c0.02-0.01,0.04-0.02,0.06-0.03c0.02-0.01,0.04-0.01,0.06,0
	c0.02,0,0.04,0.01,0.06,0.02c0.08,0.05,1.61,0.98,2.12,2.08c1.02,0.26,1.74,0.08,2.2-0.55c0.51-0.71,0.67-1.37,0.47-1.97
	c-0.38-1.16-1.95-1.8-2.34-1.94c-0.14,0.61-0.52,1.33-1.3,2.12c-0.02,0.02-0.03,0.03-0.05,0.04c-0.02,0.01-0.04,0.01-0.07,0.02
	c-0.02,0-0.05,0-0.07-0.01c-0.02-0.01-0.04-0.02-0.06-0.04c-0.02-0.02-0.03-0.03-0.04-0.06c-0.01-0.02-0.01-0.04-0.01-0.07
	c0-0.02,0.01-0.05,0.01-0.07c0.01-0.02,0.02-0.04,0.04-0.06c1.19-1.21,1.56-2.44,1.06-3.46c-0.28-0.57-0.81-1.02-1.48-1.34
	l-0.01,0.07c0,0,2.19,4.1-1.78,4.32c0,0,0.53,1.64-2.67,1.32c-0.11-0.01-0.21-0.02-0.31-0.02c1.76,0.47,3.43,1.44,4.97,2.91
	c0.26,0.05,0.48,0.18,0.66,0.38c0.41-0.28,0.6-0.58,0.6-0.94C26.99,19.93,24.9,18.65,24.88,18.63z"/>
<path class="st8" d="M24.88,18.63c-0.02-0.01-0.03-0.03-0.05-0.04c-0.01-0.02-0.02-0.04-0.03-0.06c0-0.02-0.01-0.04,0-0.07
	c0-0.02,0.01-0.04,0.02-0.06c0.01-0.02,0.03-0.03,0.04-0.05c0.02-0.01,0.04-0.02,0.06-0.03c0.02-0.01,0.04-0.01,0.06,0
	c0.02,0,0.04,0.01,0.06,0.02c0.08,0.05,1.61,0.98,2.12,2.08c1.02,0.26,1.74,0.08,2.2-0.55c0.51-0.71,0.67-1.37,0.47-1.97
	c-0.38-1.16-1.95-1.8-2.34-1.94c-0.14,0.61-0.52,1.33-1.3,2.12c-0.02,0.02-0.03,0.03-0.05,0.04c-0.02,0.01-0.04,0.01-0.07,0.02
	c-0.02,0-0.05,0-0.07-0.01c-0.02-0.01-0.04-0.02-0.06-0.04c-0.02-0.02-0.03-0.03-0.04-0.06c-0.01-0.02-0.01-0.04-0.01-0.07
	c0-0.02,0.01-0.05,0.01-0.07c0.01-0.02,0.02-0.04,0.04-0.06c1.19-1.21,1.56-2.44,1.06-3.46c-0.28-0.57-0.81-1.02-1.48-1.34
	l-0.01,0.07c0,0,2.19,4.1-1.78,4.32c0,0,0.53,1.64-2.67,1.32c-0.11-0.01-0.21-0.02-0.31-0.02c1.76,0.47,3.43,1.44,4.97,2.91
	c0.26,0.05,0.48,0.18,0.66,0.38c0.41-0.28,0.6-0.58,0.6-0.94C26.99,19.93,24.9,18.65,24.88,18.63z"/>
<path class="st2" d="M29.23,19.16c-0.7,1.31-2.34,0.78-2.34,0.78c0.11,0.15,0.21,0.31,0.29,0.48c1.02,0.26,1.74,0.08,2.2-0.55
	c0.51-0.71,0.67-1.37,0.47-1.97c-0.38-1.16-1.95-1.8-2.34-1.94C27.5,15.96,30.09,17.55,29.23,19.16z"/>
<path class="st2" d="M25.13,18.8l-0.25-0.17c0,0,2.15,1.74,1.64,2.61c-0.11,0.2-0.25,0.38-0.41,0.54c0.11,0.07,0.22,0.15,0.31,0.24
	c0.41-0.28,0.6-0.58,0.59-0.94C26.99,20.17,25.69,19.18,25.13,18.8z"/>
<path class="st9" d="M20.48,27.48c-0.11-0.06-0.2-0.14-0.29-0.23c-0.32,0.11-0.64,0.18-0.97,0.22c-1.79,0.19-3-0.41-3.83-1.2
	c0.03,0.05,0.07,0.09,0.1,0.13c0.57,0.71,1.32,1.19,2.24,1.43h0.01c0.04,0,0.07,0.01,0.1,0.03c0.38,0.09,0.76,0.14,1.14,0.15
	c0.71,0.04,1.4-0.05,2.08-0.25C20.87,27.68,20.67,27.59,20.48,27.48z"/>
<path class="st9" d="M22.52,22.56c0.06-0.01,0.11,0,0.17,0.03c0.21,0.09,0.39,0.38,0.53,0.78c0.07-0.17,0.16-0.32,0.3-0.4
	c0.08-0.04,0.16-0.06,0.25-0.05l-0.09-1.05c-0.49-0.14-0.93-0.37-1.34-0.67C22.43,21.65,22.49,22.1,22.52,22.56z"/>
<path class="st11" d="M15.17,20.57c-0.22,0.04-0.44,0.05-0.67,0.06c-0.09,0-0.18,0-0.28-0.01c0,0,0,0.01,0,0.01
	c-0.11,1.41-0.09,4.07,1.27,5.77c-1.65-3.96-0.33-5.77-0.33-5.77L15.17,20.57z"/>
<path class="st12" d="M18.82,18.76c0,0,1.26,1.86,3.56,0.8l0.28,0.07c0,0,0.24,0.54-0.71,0.73C20.99,20.56,19,20.03,18.82,18.76z"/>
<path class="st12" d="M15.18,19.3c0,0,0.56,0.98,3.06-0.55c0,0-1.64,1.93-3.99,1.52l0.08-0.68l0.97-0.34L15.18,19.3z"/>
<path class="st3" d="M24.62,24.59l1.05,0.43l-0.16,1.36l-1.46-0.7L24.62,24.59z"/>
<g>
	<defs>
		<rect id="SVGID_00000097476813408666959910000014820103583364567444_" x="17.74" y="30.2" width="7.79" height="7.64"/>
	</defs>
	<clipPath id="SVGID_00000054262188612983325870000018307896178197874309_">
		<use xlink:href="#SVGID_00000097476813408666959910000014820103583364567444_"  style="overflow:visible;"/>
	</clipPath>
	<g style="clip-path:url(#SVGID_00000054262188612983325870000018307896178197874309_);">
		<path class="st8" d="M25.43,36.3c-0.02,0.01-0.03,0.02-0.05,0.03c-0.99,0.5-2.03,0.87-3.11,1.13c-1.08,0.25-2.18,0.38-3.29,0.38
			c-0.39,0-0.78-0.02-1.17-0.05c5.17-0.41,5.23-4.59,4.67-7.39l-0.01-0.07c0,0,0,0,0,0c0.01,0.01,0.01,0.01,0.02,0.02
			c0.08,0.07,0.17,0.1,0.27,0.1c0.07,0,0.14-0.01,0.2-0.03c0.11-0.04,0.22-0.1,0.32-0.17l0.04-0.03c0,0.02,0,0.03,0,0.05
			c0,0.02,0.01,0.03,0.02,0.05c0.04,0.07,0.71,1.13,1.58,1.86c0.01,0.01,0.03,0.03,0.05,0.04l0.01,0.06l0.53,3.12
			C25.54,35.7,25.52,36.01,25.43,36.3z"/>
	</g>
</g>
<path class="st8" d="M22.48,28.51l-0.66-0.63c0,0-0.01-0.01-0.01-0.01h-0.08c0,0,0.17,0.4,0.37,1.04
	C22.22,28.79,22.34,28.65,22.48,28.51z"/>
<path class="st8" d="M25.66,26.7c0.01,0.05,0.01,0.1,0,0.15c0.25,0.13,0.33,0.31,0.34,0.44c0.03,0.21-0.07,0.45-0.29,0.69
	c0.29,0.16,1.36,0.8,1.79,1.85c0.01,0.02,0.01,0.04,0.01,0.06c0,0.02,0,0.04-0.01,0.06c-0.01,0.02-0.02,0.04-0.04,0.05
	c-0.02,0.02-0.03,0.03-0.06,0.04c-0.02,0.01-0.04,0.01-0.06,0.01c0,0-0.29,2.66-3.74,0.07c0.01,0.02,1.46,2.34,2.74,2.38
	c0.51,0.02,0.93-0.17,1.22-0.53c0.49-0.61,0.58-1.66,0.25-2.95C27.58,28.04,26.57,27.24,25.66,26.7z"/>
<path class="st8" d="M23.5,30.05l0.01,0L23.5,30.05z"/>
<path class="st8" d="M23.54,28.67c0.02,0.01,0.03,0.03,0.04,0.05c0.01,0.02,0.01,0.04,0.02,0.06c0,0.02,0,0.04-0.01,0.07
	c-0.01,0.02-0.02,0.04-0.03,0.06c-0.38,0.42-0.66,0.65-0.86,0.78c-0.03,0.16-0.04,0.36,0.02,0.41c0.02,0.02,0.07,0.01,0.13-0.01
	c0.33-0.11,1.08-0.84,1.62-1.38c0.31-0.31,0.58-0.57,0.78-0.73c0.3-0.24,0.46-0.49,0.44-0.64C24.16,29.11,23.54,28.67,23.54,28.67z"
	/>
<path class="st2" d="M18.2,25.07h1.42l-0.04-0.45l-1.58,0.03L18.2,25.07z"/>
<path class="st14" d="M19.14,25.34c-0.11,0-0.22,0.02-0.32,0.07s-0.19,0.11-0.26,0.2c0.13,0.18,0.3,0.32,0.52,0.32h0.04
	c0.08,0,0.15-0.04,0.19-0.1c0.08-0.13,0.13-0.26,0.13-0.41C19.35,25.37,19.25,25.34,19.14,25.34z"/>
<path class="st5" d="M19.45,25.25c-0.05-0.04-0.13-0.02-0.19,0c-0.05,0.02-0.1,0.05-0.14,0.08c-0.08,0.07-0.13,0.15-0.14,0.25
	c0,0.02,0.02,0.03,0.03,0.01c0.04-0.08,0.09-0.14,0.16-0.18c0.03-0.02,0.07-0.04,0.11-0.05c0.02-0.01,0.04-0.01,0.07-0.01
	c0.03,0,0.05,0.01,0.08,0c0.02,0,0.04-0.02,0.05-0.04C19.47,25.29,19.46,25.27,19.45,25.25z"/>
<path class="st9" d="M21.83,27.12c-0.03,0-0.06,0-0.09-0.01c-0.13-0.02-0.25-0.06-0.36-0.13c-0.11-0.07-0.2-0.16-0.28-0.26
	c-0.07-0.1-0.11-0.2-0.14-0.32c-0.02-0.12-0.02-0.23,0-0.35c0.01-0.05,0.01-0.09,0-0.14c-0.02-0.05-0.04-0.08-0.08-0.11
	c-0.1-0.08-0.25-0.09-0.3-0.07c-0.21,0.11-0.35,0.39-0.36,0.71c0,0.16,0.03,0.54,0.4,0.74l0.01,0.01c0.01,0,0.49,0.31,1.01,0.34
	c0.04-0.02,0.09-0.02,0.13,0c0.19,0,0.37-0.05,0.53-0.15c0.02-0.01,0.04-0.02,0.06-0.02c0.02,0,0.04,0,0.07,0
	c0.02,0,0.04,0.01,0.06,0.03c0.02,0.01,0.03,0.03,0.05,0.05c0.01,0.02,0.02,0.04,0.02,0.06c0,0.02,0,0.04,0,0.07
	c-0.01,0.02-0.01,0.04-0.03,0.06c-0.01,0.02-0.03,0.03-0.05,0.05c-0.09,0.06-0.19,0.1-0.29,0.13l0.5,0.47
	c0.39-0.39,0.81-0.8,1.2-1.14l-0.48-0.43l-0.3-0.03C23.14,26.68,22.53,27.34,21.83,27.12z"/>
<path class="st11" d="M23.06,25.33c-0.26-0.62-1.04-0.84-1.66-0.72c-0.29,0.06-0.58,0.26-0.62,0.57c-0.01,0.07-0.01,0.14,0.02,0.2
	c0.02,0.07,0.06,0.12,0.12,0.17c0.11,0.1,0.19,0.11,0.33,0.08c0.01,0,0.01-0.01,0.01-0.02c0-0.01,0-0.01-0.01-0.02
	c-0.1-0.01-0.18-0.13-0.2-0.22c-0.03-0.1-0.01-0.19,0.05-0.28c0.13-0.19,0.38-0.23,0.59-0.24c0.47-0.01,1.07,0.04,1.35,0.48
	C23.04,25.36,23.06,25.35,23.06,25.33z"/>
<path class="st11" d="M23.14,23.97c-0.01-0.08-0.01-0.17-0.01-0.25c-0.01-0.19-0.07-0.36-0.18-0.52c-0.06-0.09-0.14-0.16-0.24-0.2
	c-0.05-0.02-0.1-0.03-0.15-0.02c-0.05,0.01-0.1,0.02-0.14,0.06c-0.07,0.05-0.13,0.12-0.16,0.2c-0.04,0.1-0.01,0.21,0,0.31
	c0,0.02,0.01,0.02,0.02,0.03c0.02,0,0.02,0,0.03-0.02c0.02-0.08,0.06-0.16,0.1-0.23c0.03-0.05,0.07-0.1,0.13-0.1
	s0.11,0.04,0.14,0.09c0.04,0.05,0.08,0.11,0.1,0.17c0.02,0.05,0.05,0.13,0.07,0.19c0.03,0.07,0.06,0.15,0.09,0.22
	c0.06,0.13,0.11,0.27,0.21,0.38c0.01,0.01,0.02,0.01,0.03,0c0.01-0.01,0.01-0.02,0.01-0.03C23.17,24.15,23.15,24.06,23.14,23.97z"/>
<path class="st9" d="M23.3,24.88c-0.02-0.07-0.06-0.13-0.11-0.19c-0.01-0.02-0.02-0.04-0.03-0.07c-0.06-0.13-0.14-0.26-0.22-0.38
	c-0.11-0.15-0.25-0.27-0.42-0.37c-0.02-0.03-0.06-0.07-0.08-0.1c-0.01-0.02-0.08,0.03-0.11,0.02c-0.02-0.01-0.02,0.02-0.01,0.03
	c0.05,0.06,0.09,0.13,0.11,0.21c0.01,0.19,0.06,0.37,0.16,0.53c0.06,0.08,0.35,0.3,0.36,0.31c0,0,0.05,0.08,0.05,0.09
	s0.11,0.15,0.19,0.12c0.01,0,0.09-0.01,0.1-0.02c0.01-0.03,0.01-0.06,0.01-0.08C23.31,24.93,23.31,24.91,23.3,24.88z"/>
<path class="st9" d="M7.28,19.1l2.09-0.81l-2.44,0.04L7.28,19.1z"/>
<path class="st9" d="M11.86,20.93l-0.23-0.52l-0.87,0.58c-0.06,0.04-0.13,0.08-0.19,0.1c-0.07,0.03-0.14,0.05-0.21,0.06
	c-0.07,0.01-0.15,0.02-0.22,0.01c-0.07,0-0.15-0.02-0.22-0.04s-0.14-0.05-0.2-0.08c-0.07-0.03-0.13-0.08-0.18-0.12
	c-0.06-0.05-0.11-0.1-0.15-0.16c-0.05-0.06-0.08-0.12-0.11-0.19l-0.47-0.99l-0.88-0.82L7.28,19.1l1.12,0.66l1.03,2.33l0.13,0.35
	L11.86,20.93z"/>
<path class="st15" d="M16.82,21.35c0,0-0.77-0.06-1.02-0.43c0,0-0.01,0.58,0.52,0.71c0,0-0.24,0.11-0.56-0.06c0,0,0.1,0.4,0.38,0.44
	c-0.07,0.22-0.11,0.44-0.11,0.67c0,0.74,0.35,1.33,0.79,1.33c0.44,0,0.79-0.6,0.79-1.33C17.61,21.94,17.26,21.35,16.82,21.35z"/>
<path class="st15" d="M17.53,20.51c-0.57-0.33-1.2-0.05-1.23-0.03c-0.03,0.01-0.05,0.03-0.07,0.05c-0.02,0.02-0.03,0.04-0.04,0.07
	c-0.01,0.03-0.01,0.05-0.01,0.08c0,0.03,0.01,0.05,0.02,0.08c0.01,0.03,0.03,0.05,0.05,0.07c0.02,0.02,0.04,0.03,0.07,0.04
	c0.03,0.01,0.05,0.01,0.08,0.01c0.03,0,0.05-0.01,0.08-0.02c0,0,0.47-0.21,0.84,0.01c0.03,0.02,0.07,0.03,0.11,0.03
	c0.05,0,0.09-0.01,0.13-0.04c0.04-0.03,0.06-0.07,0.07-0.11c0.01-0.05,0.01-0.09-0.01-0.13C17.6,20.57,17.57,20.54,17.53,20.51z"/>
<path class="st15" d="M20.36,21.25c0.41-0.13,0.82,0.16,0.82,0.17c0.04,0.03,0.08,0.04,0.13,0.04c0.05,0,0.09-0.01,0.12-0.04
	c0.04-0.03,0.06-0.06,0.08-0.1c0.01-0.04,0.01-0.09,0-0.13c-0.01-0.04-0.04-0.08-0.07-0.11c-0.02-0.02-0.59-0.44-1.21-0.23
	c-0.03,0.01-0.05,0.02-0.07,0.04c-0.02,0.02-0.04,0.04-0.05,0.07c-0.01,0.02-0.02,0.05-0.02,0.08c0,0.03,0,0.06,0.01,0.08
	c0.01,0.03,0.02,0.05,0.04,0.07s0.04,0.04,0.07,0.05c0.03,0.01,0.05,0.02,0.08,0.02C20.31,21.26,20.34,21.26,20.36,21.25
	L20.36,21.25z"/>
<path class="st15" d="M19.73,23.1c0,0,0.25-0.24,0.54-0.2c0.21,0.03,0.4,0.19,0.58,0.49c0.01,0.02,0.03,0.05,0.05,0.06
	c0.02,0.02,0.05,0.03,0.07,0.04c0.03,0.01,0.05,0.01,0.08,0.01c0.03,0,0.05-0.01,0.08-0.03c0.02-0.01,0.04-0.03,0.06-0.05
	c0.02-0.02,0.03-0.05,0.04-0.07c0.01-0.03,0.01-0.05,0-0.08c0-0.03-0.01-0.05-0.03-0.08c-0.25-0.42-0.54-0.65-0.89-0.7
	c-0.49-0.07-0.87,0.3-0.89,0.32c-0.02,0.02-0.03,0.04-0.05,0.07c-0.01,0.03-0.02,0.05-0.02,0.08c0,0.03,0,0.06,0.02,0.08
	c0.01,0.03,0.03,0.05,0.05,0.07c0.02,0.02,0.04,0.04,0.07,0.05c0.03,0.01,0.05,0.02,0.08,0.02c0.03,0,0.06-0.01,0.08-0.02
	S19.71,23.12,19.73,23.1L19.73,23.1z"/>
<path class="st15" d="M19.59,24.4L18,24.38c-0.07,0-0.12,0.02-0.16,0.07c-0.04,0.05-0.06,0.11-0.05,0.17
	c0.01,0.07,0.29,1.68,1.29,1.68c0.02,0,0.05,0,0.07,0c0.09-0.01,0.18-0.03,0.26-0.07c0.08-0.04,0.15-0.1,0.21-0.17
	c0.35-0.45,0.2-1.37,0.18-1.48c0-0.02-0.01-0.05-0.02-0.07c-0.01-0.02-0.03-0.04-0.05-0.06c-0.02-0.02-0.04-0.03-0.06-0.04
	C19.64,24.41,19.62,24.4,19.59,24.4z M19.42,25.24c0,0.04,0,0.08-0.01,0.12c0,0.01,0,0.02,0,0.04c-0.01,0.15-0.05,0.28-0.13,0.4
	c-0.04,0.06-0.1,0.08-0.16,0.09c-0.22,0.02-0.39-0.12-0.52-0.31c-0.11-0.16-0.19-0.33-0.25-0.51c-0.03-0.1-0.06-0.19-0.08-0.26
	l1.15,0.02c0.01,0.08,0.01,0.16,0.02,0.25C19.42,25.12,19.42,25.18,19.42,25.24z"/>
<g>
	<defs>
		<rect id="SVGID_00000164483706346889601670000012561499292596319391_" x="0.54" y="9.61" width="29.78" height="27.84"/>
	</defs>
	<clipPath id="SVGID_00000024693198255279760510000012722550187562522783_">
		<use xlink:href="#SVGID_00000164483706346889601670000012561499292596319391_"  style="overflow:visible;"/>
	</clipPath>
	<g style="clip-path:url(#SVGID_00000024693198255279760510000012722550187562522783_);">
		<path class="st15" d="M30.2,17.79c-0.44-1.35-2.19-2.05-2.59-2.19c0.02-0.24,0.02-0.47-0.02-0.7c-0.04-0.23-0.11-0.46-0.22-0.67
			c-0.68-1.39-2.68-2.2-4.73-1.95c-0.98,0.12-1.96,0.16-2.94,0.12c-0.01-0.02-0.02-0.03-0.03-0.05c-0.54-0.64-2.33-2.06-4.19-2.09
			c-1.05-0.01-1.95,0.41-2.69,1.25c-0.16,0.18-0.31,0.38-0.43,0.59c-0.64-0.47-1.35-0.8-2.12-0.99c0-0.09-0.01-0.18-0.03-0.28
			c-0.02-0.09-0.05-0.18-0.09-0.26c-0.04-0.09-0.08-0.17-0.13-0.24c-0.05-0.08-0.11-0.15-0.18-0.21C9.73,10.06,9.66,10,9.58,9.95
			C9.51,9.9,9.43,9.85,9.34,9.82C9.25,9.78,9.16,9.76,9.07,9.74C8.98,9.72,8.89,9.71,8.8,9.71S8.61,9.72,8.52,9.74
			C8.43,9.76,8.34,9.78,8.26,9.82C8.17,9.85,8.09,9.9,8.01,9.95C7.93,10,7.86,10.06,7.79,10.12c-0.07,0.07-0.13,0.14-0.18,0.21
			c-0.05,0.08-0.1,0.16-0.13,0.24c-0.04,0.09-0.07,0.17-0.09,0.26c-0.02,0.09-0.03,0.18-0.03,0.28c-0.16,0.04-0.31,0.08-0.47,0.14
			c-0.15,0.05-0.31,0.11-0.45,0.17S6.14,11.56,6,11.64c-0.14,0.08-0.28,0.16-0.42,0.24c-0.14,0.09-0.27,0.18-0.4,0.28
			c-0.13,0.1-0.26,0.2-0.38,0.31c-0.12,0.11-0.24,0.22-0.35,0.34c-0.11,0.12-0.22,0.24-0.32,0.37c-0.1,0.13-0.2,0.26-0.29,0.39
			c-0.09,0.13-0.18,0.27-0.26,0.41c-0.08,0.14-0.15,0.29-0.22,0.43c-0.07,0.15-0.13,0.3-0.19,0.45s-0.11,0.31-0.15,0.46
			c-0.04,0.16-0.08,0.31-0.11,0.47c-0.03,0.16-0.06,0.32-0.07,0.48C2.81,16.44,2.8,16.6,2.8,16.77H1.35c-0.05,0-0.11,0-0.16,0.02
			c-0.05,0.01-0.1,0.03-0.15,0.05c-0.05,0.02-0.09,0.05-0.14,0.07c-0.04,0.03-0.08,0.06-0.12,0.1c-0.04,0.04-0.07,0.08-0.1,0.12
			c-0.03,0.04-0.05,0.09-0.07,0.14c-0.02,0.05-0.04,0.1-0.05,0.15c-0.01,0.05-0.02,0.1-0.02,0.16c0,0.05,0,0.1,0.02,0.16
			c0.01,0.05,0.03,0.1,0.05,0.15c0.02,0.05,0.04,0.09,0.07,0.14c0.03,0.04,0.06,0.08,0.1,0.12c0.04,0.04,0.08,0.07,0.12,0.1
			c0.04,0.03,0.09,0.05,0.14,0.07c0.05,0.02,0.1,0.04,0.15,0.05c0.05,0.01,0.1,0.02,0.16,0.02h5.08l1.68,1.64l1.23,2.48
			c-0.28,0.2-0.55,0.4-0.79,0.57c-0.05,0.04-0.1,0.08-0.13,0.13c-0.04,0.05-0.07,0.1-0.09,0.16C8.31,23.4,8.3,23.47,8.3,23.53
			c0,0.06,0,0.12,0.01,0.19c0.02,0.08,0.05,0.15,0.1,0.21c0.05,0.06,0.12,0.1,0.19,0.13c0.04,0.02,0.09,0.02,0.13,0.03
			c-0.04,0.18-0.04,0.41,0.09,0.57c0.05,0.06,0.11,0.1,0.18,0.14c0.07,0.03,0.14,0.04,0.22,0.04c0.05,0,0.1,0,0.14-0.01
			c0.11-0.02,0.22-0.06,0.32-0.1c0.2,0.25,2.57,3.22,2.61,6.24c0.01,1.4-0.07,2.8-0.26,4.19c-0.04,0.32-0.02,0.64,0.07,0.95
			c0.17,0.09,0.33,0.18,0.51,0.26l0.06,0.03c-0.1-0.18-0.17-0.38-0.2-0.58c-0.04-0.2-0.04-0.41-0.01-0.61
			c0.19-1.41,0.28-2.83,0.26-4.25c-0.04-3.01-2.2-5.86-2.64-6.43c0.47-0.26,1.03-0.65,1.55-1.02c0.38-0.27,0.75-0.52,0.98-0.65
			c0.08-0.05,0.16-0.09,0.23-0.14l1.51,2.44c0.01,0.02,0.03,0.03,0.04,0.05c0.2,0.53,0.48,1.01,0.82,1.45
			c0.4,0.51,0.89,0.9,1.47,1.2l-0.69,0.03c-0.04,0-0.08,0.01-0.11,0.04c-0.03,0.02-0.06,0.05-0.07,0.09
			c-0.02,0.04-1.76,4.19-0.6,9.35l0.05,0.01c0.12,0.03,0.24,0.07,0.37,0.09l0.05,0.01c-1.12-4.63,0.2-8.46,0.47-9.18l1.56-0.07
			c0.42,0.1,0.85,0.16,1.28,0.18c0.1,0,0.21,0.01,0.31,0.01c0.85,0.01,1.66-0.15,2.44-0.48h0.02c0.01,0,0.02,0,0.03,0v0l0.63,0.6
			c-0.14,0.15-0.28,0.29-0.42,0.43c-0.04,0.04-0.07,0.09-0.1,0.14c-0.03,0.05-0.05,0.1-0.06,0.16c-0.01,0.06-0.02,0.11-0.01,0.17
			c0,0.06,0.02,0.11,0.04,0.17c0.02,0.07,0.07,0.13,0.12,0.18s0.12,0.08,0.2,0.1c0.03,0,0.06,0.01,0.08,0.01h0.02
			c0,0.17,0.03,0.37,0.16,0.5c0.08,0.08,0.18,0.11,0.29,0.11c0.07,0,0.14-0.01,0.21-0.04c0.11-0.04,0.22-0.1,0.32-0.17
			c0,0.02,0.01,0.03,0.02,0.05c0.04,0.07,0.73,1.16,1.62,1.9l0.54,3.17c0.05,0.32,0.03,0.63-0.07,0.94
			c0.02-0.01,0.03-0.02,0.05-0.03c0.15-0.07,0.3-0.15,0.44-0.23c0.04-0.25,0.04-0.5,0-0.75l-0.47-2.75c0.31,0.18,0.63,0.3,0.95,0.32
			c0.03,0,0.05,0,0.08,0c0.14,0,0.28-0.01,0.41-0.04c0.14-0.03,0.27-0.07,0.39-0.13c0.13-0.06,0.24-0.13,0.35-0.21
			c0.11-0.08,0.21-0.18,0.3-0.29c0.57-0.71,0.68-1.87,0.33-3.28c-0.29-1.14-1.4-2.02-2.39-2.6l0.06-1.35
			c0.16-0.07,0.3-0.17,0.43-0.29c0.08-0.08,0.15-0.16,0.21-0.25c0.06-0.09,0.12-0.18,0.17-0.28c0.05-0.1,0.09-0.2,0.12-0.3
			c0.03-0.1,0.06-0.21,0.07-0.31s0.02-0.21,0.02-0.32c0-0.11-0.01-0.22-0.03-0.32c-0.02-0.11-0.04-0.21-0.08-0.31
			c-0.03-0.1-0.07-0.2-0.12-0.3c0.48-0.34,0.73-0.76,0.72-1.23c0-0.08-0.01-0.15-0.02-0.23c0.21,0.04,0.42,0.07,0.64,0.07
			c0.72,0,1.28-0.28,1.68-0.82C30.26,19.29,30.44,18.51,30.2,17.79z M8.8,10.14c0.06,0,0.12,0.01,0.18,0.02s0.12,0.03,0.18,0.05
			c0.06,0.02,0.11,0.05,0.16,0.08c0.05,0.03,0.1,0.07,0.15,0.11c0.05,0.04,0.09,0.08,0.13,0.13c0.04,0.05,0.07,0.1,0.1,0.15
			c0.03,0.05,0.05,0.11,0.07,0.17c0.02,0.06,0.03,0.12,0.04,0.18c-0.67-0.11-1.34-0.11-2.01,0c0.01-0.06,0.02-0.12,0.04-0.18
			c0.02-0.06,0.04-0.11,0.07-0.17c0.03-0.05,0.06-0.11,0.1-0.15c0.04-0.05,0.08-0.09,0.13-0.13c0.05-0.04,0.1-0.08,0.15-0.11
			c0.05-0.03,0.11-0.06,0.16-0.08c0.06-0.02,0.12-0.04,0.18-0.05C8.68,10.14,8.74,10.14,8.8,10.14z M8.8,11.36
			c0.3,0,0.6,0.02,0.9,0.07c0.3,0.05,0.59,0.12,0.87,0.21c0.29,0.1,0.56,0.21,0.83,0.35c0.27,0.14,0.52,0.3,0.76,0.48
			c-0.11,0.24-0.19,0.5-0.24,0.76c-0.05,0.27-0.06,0.53-0.03,0.8c0.11,1.23,0.92,2.22,1.41,2.72H3.22c0.01-0.18,0.02-0.36,0.04-0.53
			c0.02-0.18,0.06-0.35,0.1-0.53c0.04-0.17,0.09-0.35,0.15-0.52c0.06-0.17,0.12-0.34,0.19-0.5c0.07-0.16,0.15-0.32,0.24-0.48
			c0.09-0.16,0.18-0.31,0.29-0.45c0.1-0.15,0.21-0.29,0.33-0.42c0.12-0.14,0.24-0.27,0.37-0.39c0.13-0.12,0.26-0.24,0.4-0.35
			c0.14-0.11,0.28-0.22,0.43-0.31c0.15-0.1,0.3-0.19,0.46-0.27c0.16-0.08,0.32-0.16,0.49-0.22c0.17-0.07,0.33-0.13,0.51-0.18
			c0.17-0.05,0.35-0.09,0.52-0.13c0.18-0.03,0.35-0.06,0.53-0.08C8.44,11.37,8.62,11.36,8.8,11.36z M13.37,17.93h-2.69
			c-0.02-0.2-0.08-0.47-0.28-0.66c-0.03-0.03-0.07-0.06-0.1-0.08h3.21C13.39,17.42,13.35,17.67,13.37,17.93z M0.97,17.57
			c0-0.05,0.01-0.1,0.03-0.15c0.02-0.05,0.05-0.09,0.08-0.12c0.04-0.04,0.08-0.06,0.12-0.08c0.05-0.02,0.1-0.03,0.15-0.03H9.4
			c-0.1,0.05-0.17,0.13-0.23,0.22c-0.1,0.16-0.14,0.34-0.12,0.53l-2.53,0.02H1.35c-0.05,0-0.1-0.01-0.15-0.03
			c-0.05-0.02-0.09-0.05-0.12-0.08c-0.04-0.04-0.06-0.08-0.08-0.12C0.98,17.67,0.97,17.62,0.97,17.57z M8.47,19.79
			c-0.01-0.02-0.02-0.04-0.04-0.06l-1.4-1.36l2.26-0.02h0.02c0.01,0,0.02,0,0.03-0.01h0.01c0.01,0,0.02-0.01,0.03-0.01l0.01,0
			c0.01-0.01,0.02-0.01,0.03-0.02l0.01-0.01c0.01-0.01,0.02-0.01,0.02-0.02l0.01-0.01c0.01-0.01,0.01-0.02,0.02-0.03l0-0.01
			c0.01-0.01,0.01-0.02,0.01-0.03V18.2c0-0.01,0-0.02,0.01-0.03c0,0,0-0.01,0-0.02c0,0,0-0.01,0-0.01c0-0.02,0-0.04-0.01-0.06
			c-0.02-0.08-0.06-0.31,0.03-0.44c0.05-0.08,0.14-0.12,0.28-0.14c0.14-0.02,0.24,0.01,0.31,0.08c0.14,0.13,0.16,0.42,0.16,0.55
			c0,0.01,0,0.01,0,0.02c0,0,0,0,0,0.01c0,0,0,0.01,0,0.01c0,0.01,0,0.02,0,0.02c0,0.01,0,0.01,0,0.02l0,0.02l0.01,0.02l0,0.01
			L11.6,21c-0.56,0.31-1.26,0.78-1.92,1.24L8.47,19.79z M12.39,22.47c-0.25,0.14-0.6,0.39-1.01,0.67c-0.71,0.5-1.69,1.18-2.08,1.24
			c-0.1,0.02-0.14,0-0.14-0.01c-0.04-0.05-0.01-0.24,0.05-0.4c0.26-0.11,0.62-0.32,1.12-0.71c0.02-0.02,0.04-0.04,0.05-0.06
			c0.01-0.02,0.02-0.05,0.03-0.08c0-0.03,0-0.06-0.01-0.08c-0.01-0.03-0.02-0.05-0.04-0.07c-0.02-0.02-0.04-0.04-0.06-0.05
			c-0.02-0.01-0.05-0.02-0.08-0.03c-0.03,0-0.06,0-0.08,0.01c-0.03,0.01-0.05,0.02-0.07,0.04c-1.02,0.79-1.29,0.73-1.32,0.72
			c-0.01,0-0.01,0-0.02-0.04c-0.01-0.04,0-0.08,0.01-0.12c0.02-0.04,0.04-0.07,0.08-0.1c1.88-1.39,3.37-2.33,3.7-2.34
			c0.06,0,0.17,0.01,0.19,0.08c0.03,0.13-0.17,0.49-0.72,0.68c-0.03,0.01-0.05,0.02-0.08,0.04c-0.02,0.02-0.04,0.04-0.06,0.07
			c-0.01,0.03-0.02,0.05-0.02,0.08c0,0.03,0,0.06,0.01,0.09c0.01,0.03,0.02,0.05,0.04,0.07c0.02,0.02,0.04,0.04,0.07,0.05
			c0.03,0.01,0.06,0.02,0.08,0.02s0.06-0.01,0.08-0.02c0.31-0.1,0.57-0.26,0.78-0.5c0.06,0.04,0.1,0.09,0.1,0.17
			C12.99,21.99,12.83,22.22,12.39,22.47z M13.15,22.42c0.17-0.18,0.26-0.37,0.26-0.55c0-0.15-0.06-0.36-0.32-0.54
			c0.03-0.09,0.03-0.18,0.02-0.28c-0.04-0.21-0.22-0.43-0.61-0.42c-0.12,0-0.3,0.07-0.52,0.17l-1.18-2.45h2.63
			c0.05,0.21,0.11,0.41,0.19,0.61c0.07,0.2,0.18,0.44,0.37,0.58c-0.01,0.02-0.02,0.04-0.02,0.07c-0.01,0.04-0.06,0.32-0.1,0.74
			c-0.01,0.02-0.01,0.03-0.02,0.05c0,0.02,0,0.05,0,0.07c-0.07,0.79-0.11,2.02,0.13,3.29L13.15,22.42z M22.71,28.22l-0.42-0.4
			c0.08-0.03,0.16-0.07,0.23-0.11c0.02-0.01,0.04-0.03,0.06-0.06c0.02-0.02,0.03-0.05,0.03-0.08c0.01-0.03,0.01-0.05,0-0.08
			s-0.01-0.05-0.03-0.08s-0.03-0.04-0.06-0.06c-0.02-0.02-0.05-0.03-0.07-0.03c-0.03-0.01-0.05-0.01-0.08,0s-0.05,0.01-0.08,0.03
			c-0.15,0.09-0.32,0.14-0.5,0.15c-0.05-0.02-0.1-0.02-0.15,0h0c-0.51-0.04-0.97-0.33-0.98-0.33c-0.01,0-0.01-0.01-0.02-0.01
			c-0.34-0.18-0.38-0.55-0.37-0.7c0-0.3,0.14-0.57,0.33-0.67c0.09-0.02,0.18,0,0.25,0.06c0.03,0.02,0.06,0.05,0.07,0.09
			c0.01,0.04,0.01,0.08,0,0.12c-0.03,0.12-0.03,0.24-0.01,0.37c0.02,0.12,0.07,0.23,0.15,0.34c0.08,0.11,0.17,0.2,0.29,0.27
			c0.11,0.07,0.24,0.12,0.37,0.13c0.08,0.01,0.15,0.01,0.23-0.01c0.16-0.03,0.29-0.1,0.4-0.21c0.21-0.21,0.31-0.54,0.27-0.92
			c0-0.09-0.03-0.18-0.07-0.26c-0.04-0.08-0.1-0.15-0.17-0.21c-0.15-0.12-0.35-0.16-0.59-0.13c-0.21,0.03-0.42,0.03-0.63-0.02
			c-0.05-0.01-0.1-0.03-0.14-0.05c-0.07-0.02-0.12-0.06-0.17-0.12c-0.01-0.05,0-0.1,0.03-0.14c0.13-0.24,0.39-0.34,0.58-0.38
			c0.15-0.03,0.29-0.03,0.44-0.02c0.15,0.02,0.29,0.06,0.42,0.12l0.02,0.01c0,0,0.01,0.01,0.01,0.01h0.01
			c0.04,0.02,0.07,0.05,0.1,0.07c0.03,0.02,0.05,0.04,0.07,0.07c0.3,0.29,0.59,0.77,0.42,1.49c-0.01,0.02-0.01,0.05,0,0.08
			c0,0.03,0.01,0.05,0.02,0.07c0.01,0.02,0.03,0.04,0.05,0.06c0.02,0.02,0.04,0.03,0.07,0.04c0.01,0,0.02,0.01,0.02,0.01
			c0.06,0.01,0.11,0,0.16-0.03c0.01-0.01,0.02-0.02,0.04-0.03l0.53,0.47C23.5,27.45,23.1,27.83,22.71,28.22L22.71,28.22z
			 M21.35,25.86c0.17,0.02,0.35,0.01,0.52-0.01c0.1-0.02,0.19-0.01,0.27,0.04c0.05,0.05,0.08,0.11,0.08,0.18
			c0.02,0.25-0.03,0.46-0.15,0.57c-0.04,0.04-0.08,0.06-0.13,0.08c-0.05,0.02-0.1,0.02-0.15,0.01c-0.07-0.01-0.14-0.04-0.21-0.08
			c-0.06-0.04-0.12-0.09-0.16-0.15c-0.04-0.05-0.06-0.11-0.08-0.18c-0.01-0.06-0.01-0.13,0-0.19
			C21.37,26.05,21.37,25.96,21.35,25.86L21.35,25.86z M23.81,23.34c0.22,0.13,0.06,1.1-0.34,2.24c0.04-0.46,0.03-0.92-0.03-1.38
			c0.01-0.37,0.12-0.82,0.25-0.89C23.72,23.29,23.77,23.31,23.81,23.34L23.81,23.34z M23.07,24.93c-0.08-0.11-0.17-0.21-0.27-0.3
			c-0.02-0.01-0.03-0.03-0.05-0.04c-0.03-0.03-0.06-0.05-0.1-0.07c-0.01-0.01-0.02-0.01-0.02-0.02c-0.13-0.36-0.35-1.2-0.09-1.54
			c0-0.01,0.01-0.01,0.01-0.02C22.72,23.03,23.06,23.84,23.07,24.93L23.07,24.93z M24.17,26.85l-0.46-0.41
			c0.13-0.15,0.25-0.3,0.36-0.46c0.1,0.04,0.41,0.16,0.82,0.36C24.63,26.48,24.4,26.66,24.17,26.85L24.17,26.85z M24.16,23.09
			l-0.01-0.01c0-0.01,0-0.01,0-0.02l-0.09-1.05c0.12,0.02,0.24,0.04,0.37,0.06c-0.02,0.02-0.03,0.04-0.03,0.07L24.16,23.09z
			 M25.02,21.7c-0.02-0.01-0.05-0.01-0.07-0.01c-1.64-0.03-2.58-0.88-2.94-1.3c0.13-0.05,0.27-0.1,0.4-0.17
			c0.02-0.01,0.04-0.03,0.06-0.05c0.02-0.02,0.03-0.04,0.04-0.07c0.01-0.03,0.01-0.05,0.01-0.08c0-0.03-0.01-0.05-0.02-0.08
			c-0.01-0.02-0.03-0.05-0.05-0.06c-0.02-0.02-0.04-0.03-0.07-0.04c-0.02-0.01-0.05-0.01-0.08-0.01c-0.03,0-0.05,0.01-0.08,0.02
			c-0.78,0.38-1.48,0.44-2.08,0.2c-0.69-0.28-1.09-0.91-1.26-1.23c1.86,0.11,4.07,0.83,6.29,2.83
			C25.12,21.66,25.07,21.68,25.02,21.7L25.02,21.7z M14.37,19.68c0-0.01,0-0.03,0-0.04c0.07-0.01,0.14-0.03,0.2-0.06
			c0.56-0.24,1.14-0.43,1.73-0.56c0.6-0.13,1.2-0.21,1.81-0.22c-0.67,0.5-2.25,1.53-3.81,1.44C14.34,19.89,14.37,19.68,14.37,19.68z
			 M19,27.96c-0.38-0.01-0.76-0.06-1.13-0.15c-0.03-0.02-0.07-0.03-0.11-0.03h0c-0.91-0.24-1.65-0.71-2.21-1.42
			c-1.35-1.68-1.37-4.3-1.27-5.71c0.08,0,0.16,0.01,0.24,0.01c1.76,0,3.43-1.18,4.02-1.65c0.2,0.38,0.66,1.09,1.46,1.41
			c0.49,0.2,1.02,0.23,1.59,0.09c0.26,0.33,0.57,0.62,0.92,0.85c0.35,0.24,0.73,0.41,1.14,0.53l0.08,0.97
			c-0.08,0-0.15,0.02-0.22,0.06c-0.12,0.08-0.21,0.18-0.27,0.32c-0.13-0.36-0.31-0.62-0.52-0.7c-0.18-0.07-0.36-0.02-0.49,0.15
			c-0.33,0.42-0.21,1.15-0.08,1.61c-0.24-0.05-0.48-0.05-0.73,0c-0.41,0.08-0.72,0.29-0.87,0.6c-0.04,0.07-0.07,0.15-0.08,0.23
			c-0.01,0.08,0,0.16,0.03,0.24c-0.02,0.01-0.03,0.01-0.05,0.02c-0.34,0.17-0.56,0.58-0.56,1.04c0,0.15,0.02,0.29,0.07,0.43
			c0.05,0.14,0.12,0.27,0.21,0.38c0.09,0.1,0.19,0.19,0.31,0.25c0.15,0.09,0.32,0.17,0.49,0.24C20.3,27.93,19.66,28,19,27.96z
			 M22.82,30.05c-0.03,0.01-0.06,0.02-0.09,0.02c-0.03-0.03-0.04-0.2-0.01-0.35c0.24-0.15,0.52-0.4,0.86-0.78
			c0.02-0.02,0.03-0.04,0.04-0.07c0.01-0.03,0.01-0.05,0.01-0.08c0-0.03-0.01-0.05-0.02-0.08c-0.01-0.02-0.03-0.05-0.05-0.06
			c-0.02-0.02-0.04-0.03-0.07-0.04c-0.03-0.01-0.05-0.01-0.08-0.01c-0.03,0-0.05,0.01-0.08,0.02c-0.02,0.01-0.05,0.03-0.07,0.04
			c-0.77,0.84-1,0.8-0.99,0.8c-0.01-0.01-0.01-0.02-0.01-0.02c-0.01-0.03-0.01-0.07-0.01-0.1c0.01-0.03,0.02-0.07,0.05-0.09
			c1.4-1.45,2.57-2.51,2.84-2.56c0.08-0.01,0.12,0,0.13,0.03c0.04,0.12-0.07,0.45-0.52,0.68c-0.02,0.01-0.05,0.03-0.06,0.05
			c-0.02,0.02-0.03,0.05-0.04,0.07c-0.01,0.03-0.01,0.05-0.01,0.08c0,0.03,0.01,0.05,0.02,0.08c0.01,0.02,0.03,0.05,0.05,0.06
			c0.02,0.02,0.05,0.03,0.07,0.04c0.03,0.01,0.05,0.01,0.08,0.01c0.03,0,0.05-0.01,0.08-0.02c0.25-0.12,0.44-0.3,0.6-0.53
			c0.04,0.03,0.06,0.06,0.07,0.11c0.02,0.11-0.09,0.33-0.43,0.6c-0.2,0.16-0.47,0.43-0.78,0.74C23.88,29.21,23.14,29.94,22.82,30.05
			z M27.79,29.05c0.33,1.28,0.24,2.31-0.25,2.91c-0.28,0.35-0.69,0.53-1.19,0.51c-1.26-0.05-2.69-2.34-2.71-2.36
			c-0.02-0.03-0.04-0.05-0.06-0.07c0.32-0.26,0.69-0.63,1.14-1.06c0.29-0.29,0.57-0.56,0.75-0.71c0,0,0.01,0,0.01,0.01
			c0.01,0.01,1.25,0.64,1.67,1.69c0.02,0.04,0.04,0.07,0.08,0.1c0.04,0.02,0.07,0.04,0.12,0.04c0.03,0,0.05-0.01,0.08-0.02
			c0.03-0.01,0.05-0.03,0.07-0.05c0.02-0.02,0.04-0.04,0.05-0.07c0.01-0.03,0.02-0.05,0.02-0.08c0-0.03-0.01-0.06-0.02-0.08
			c-0.41-1.01-1.42-1.65-1.76-1.85c0.2-0.24,0.29-0.47,0.26-0.69c-0.02-0.13-0.1-0.32-0.34-0.45c0-0.02,0-0.04,0-0.05
			C26.59,27.31,27.54,28.09,27.79,29.05L27.79,29.05z M25.4,26.12c-0.35-0.19-0.71-0.35-1.08-0.5c0.14-0.23,0.28-0.47,0.39-0.71
			c0.15,0.1,0.31,0.16,0.49,0.19c0.06,0.01,0.12,0.01,0.17,0.01c0.02,0,0.05,0,0.07,0L25.4,26.12z M26.45,23.49
			c-0.02,0.17-0.07,0.34-0.15,0.49c-0.08,0.16-0.18,0.3-0.3,0.42c-0.22,0.21-0.49,0.31-0.75,0.27c-0.18-0.03-0.34-0.11-0.47-0.24
			c-0.02-0.02-0.04-0.03-0.07-0.05s-0.05-0.02-0.08-0.02c-0.03,0-0.05,0-0.08,0.02c-0.03,0.01-0.05,0.03-0.07,0.05c0,0,0,0,0,0
			c-0.02,0.02-0.04,0.04-0.05,0.07c-0.13,0.29-0.28,0.57-0.45,0.84c0.04-0.11,0.07-0.23,0.11-0.35c0.05-0.17,0.09-0.33,0.12-0.48
			c0.02-0.02,0.03-0.05,0.04-0.08l0.52-2.05c0.02-0.01,0.04-0.03,0.06-0.04c0.23-0.25,0.53-0.37,0.81-0.33
			C26.19,22.1,26.56,22.76,26.45,23.49L26.45,23.49z M29.33,19.85c-0.45,0.62-1.14,0.79-2.13,0.54c-0.53-1.1-2.05-2.03-2.13-2.08
			c-0.02-0.01-0.05-0.02-0.08-0.02c-0.03,0-0.05,0-0.08,0.01c-0.03,0.01-0.05,0.02-0.07,0.03c-0.02,0.02-0.04,0.04-0.05,0.06
			c-0.01,0.02-0.02,0.05-0.03,0.07c0,0.03,0,0.05,0,0.08c0.01,0.03,0.02,0.05,0.03,0.07c0.02,0.02,0.03,0.04,0.06,0.06
			c0.58,0.35,2.09,1.47,2.11,2.42c0.01,0.33-0.17,0.63-0.55,0.89c-0.18-0.19-0.39-0.31-0.65-0.36c-2.09-1.99-4.4-3.07-6.88-3.22
			c-0.77-0.04-1.53,0-2.28,0.14c-0.76,0.13-1.49,0.35-2.19,0.66c-0.09,0.04-0.13,0.02-0.15,0.02c-0.06-0.02-0.15-0.11-0.25-0.4
			c-0.37-1-0.29-1.52,0.29-1.83c3.1-1.67,7.06-0.05,7.1-0.03c0.03,0.01,0.05,0.02,0.08,0.02s0.05-0.01,0.08-0.02
			c0.03-0.01,0.05-0.03,0.07-0.05c0.02-0.02,0.03-0.04,0.05-0.07c0.01-0.03,0.02-0.05,0.02-0.08c0-0.03-0.01-0.05-0.02-0.08
			c-0.01-0.03-0.03-0.05-0.05-0.07c-0.02-0.02-0.04-0.03-0.07-0.05c-0.17-0.07-4.19-1.71-7.46,0.05c-0.07,0.04-0.14,0.08-0.21,0.13
			c-0.25-0.22-1.46-1.33-1.59-2.74c-0.02-0.26-0.01-0.51,0.04-0.76c0.05-0.25,0.14-0.49,0.26-0.72c0-0.01,0.01-0.01,0.01-0.02
			c0.14-0.26,0.3-0.49,0.49-0.71c0.65-0.75,1.45-1.12,2.36-1.11c1.5,0.02,2.97,1.06,3.62,1.68c-1.25-0.1-2.06-0.31-2.23-0.38
			l-0.02-0.02c-0.02-0.01-0.05-0.02-0.08-0.03c-0.03,0-0.06,0-0.08,0.01c-0.03,0.01-0.05,0.02-0.07,0.04
			c-0.02,0.02-0.04,0.04-0.05,0.06c-0.02,0.03-0.03,0.07-0.03,0.11c0,0.04,0.01,0.08,0.03,0.11c0.16,0.24,1.84,0.44,1.85,0.44
			c1.43,0.16,2.85,0.15,4.27-0.03c1.89-0.23,3.7,0.49,4.3,1.72c0.5,1,0.12,2.22-1.05,3.41c-0.02,0.02-0.03,0.04-0.05,0.07
			c-0.01,0.03-0.02,0.05-0.02,0.08c0,0.03,0.01,0.05,0.02,0.08c0.01,0.03,0.03,0.05,0.05,0.07c0.04,0.04,0.09,0.06,0.15,0.06
			c0.06,0,0.11-0.02,0.15-0.06c0.77-0.78,1.15-1.49,1.3-2.1c0.45,0.17,1.91,0.8,2.27,1.9C29.99,18.51,29.84,19.16,29.33,19.85
			L29.33,19.85z"/>
	</g>
</g>
<path class="st15" d="M25.74,22.24c-0.09-0.02-0.19-0.03-0.28-0.01c-0.1,0.02-0.18,0.05-0.26,0.11c-0.07,0.05-0.13,0.1-0.19,0.16
	c-0.06,0.06-0.11,0.13-0.15,0.2s-0.08,0.15-0.1,0.23c-0.02,0.08-0.04,0.16-0.05,0.24c-0.01,0.09,0,0.18,0.01,0.27
	c0.01,0.09,0.04,0.18,0.07,0.26c0.04,0.09,0.08,0.16,0.14,0.24c0.05,0.07,0.12,0.14,0.19,0.2c0.02,0.02,0.05,0.03,0.07,0.04
	s0.05,0.01,0.08,0.01c0.03,0,0.06-0.01,0.08-0.02c0.03-0.01,0.05-0.03,0.07-0.05c0.02-0.02,0.03-0.05,0.04-0.07
	c0.01-0.03,0.01-0.05,0.01-0.08s-0.01-0.05-0.02-0.08c-0.01-0.02-0.03-0.05-0.05-0.06c-0.06-0.05-0.11-0.11-0.15-0.17
	c-0.04-0.07-0.07-0.14-0.09-0.21c-0.02-0.08-0.02-0.15-0.02-0.23c0.01-0.08,0.02-0.15,0.05-0.23c0.04,0.03,0.07,0.06,0.1,0.1
	c0.03,0.04,0.04,0.09,0.04,0.14c0,0.03,0.01,0.05,0.02,0.08c0.01,0.02,0.03,0.05,0.05,0.06c0.02,0.02,0.04,0.03,0.07,0.04
	c0.02,0.01,0.05,0.02,0.08,0.02h0.01c0.03,0,0.05-0.01,0.08-0.02c0.02-0.01,0.05-0.03,0.07-0.05c0.02-0.02,0.03-0.04,0.04-0.07
	s0.01-0.05,0.01-0.08c-0.01-0.1-0.04-0.2-0.08-0.29c-0.05-0.09-0.11-0.17-0.19-0.24c0.05-0.03,0.1-0.03,0.15-0.02
	c0.06,0.02,0.1,0.06,0.13,0.11c0.01,0.02,0.03,0.05,0.05,0.06c0.02,0.02,0.05,0.03,0.07,0.04s0.05,0.01,0.08,0.01
	c0.03,0,0.05-0.01,0.08-0.02c0.02-0.01,0.05-0.03,0.06-0.05c0.02-0.02,0.03-0.05,0.04-0.07c0.01-0.03,0.01-0.05,0.01-0.08
	c0-0.03-0.01-0.05-0.02-0.08c-0.04-0.08-0.1-0.14-0.16-0.19C25.89,22.31,25.82,22.27,25.74,22.24z"/>
<path class="st15" d="M16.76,29.45c-0.05,0-0.09,0-0.14,0.01c-0.05,0.01-0.09,0.02-0.14,0.04c-0.04,0.02-0.09,0.04-0.12,0.07
	c-0.04,0.03-0.08,0.06-0.11,0.09c-0.03,0.03-0.06,0.07-0.09,0.11c-0.03,0.04-0.05,0.08-0.07,0.13c-0.02,0.04-0.03,0.09-0.04,0.14
	c-0.01,0.05-0.01,0.09-0.01,0.14c0,0.05,0,0.09,0.01,0.14c0.01,0.05,0.02,0.09,0.04,0.14c0.02,0.04,0.04,0.09,0.07,0.12
	c0.03,0.04,0.06,0.08,0.09,0.11c0.03,0.03,0.07,0.06,0.11,0.09c0.04,0.03,0.08,0.05,0.12,0.07c0.04,0.02,0.09,0.03,0.14,0.04
	c0.05,0.01,0.09,0.01,0.14,0.01s0.09,0,0.14-0.01c0.05-0.01,0.09-0.02,0.14-0.04c0.04-0.02,0.09-0.04,0.12-0.07
	c0.04-0.03,0.08-0.06,0.11-0.09c0.03-0.03,0.06-0.07,0.09-0.11s0.05-0.08,0.07-0.12c0.02-0.04,0.03-0.09,0.04-0.14
	s0.01-0.09,0.01-0.14c0-0.05,0-0.09-0.01-0.14c-0.01-0.05-0.02-0.09-0.04-0.14c-0.02-0.04-0.04-0.09-0.07-0.12
	c-0.03-0.04-0.06-0.08-0.09-0.11c-0.03-0.03-0.07-0.06-0.11-0.09c-0.04-0.03-0.08-0.05-0.12-0.07c-0.04-0.02-0.09-0.03-0.14-0.04
	C16.85,29.46,16.8,29.45,16.76,29.45z M16.76,30.48c-0.04,0-0.08-0.01-0.12-0.02c-0.04-0.02-0.07-0.04-0.1-0.07
	c-0.03-0.03-0.05-0.06-0.07-0.1c-0.02-0.04-0.02-0.08-0.02-0.12c0-0.04,0.01-0.08,0.02-0.12c0.02-0.04,0.04-0.07,0.07-0.1
	c0.03-0.03,0.06-0.05,0.1-0.07c0.04-0.01,0.08-0.02,0.12-0.02c0.04,0,0.08,0.01,0.12,0.02c0.04,0.02,0.07,0.04,0.1,0.07
	c0.03,0.03,0.05,0.06,0.07,0.1c0.02,0.04,0.02,0.08,0.02,0.12c0,0.04-0.01,0.08-0.02,0.12c-0.02,0.04-0.04,0.07-0.07,0.1
	c-0.03,0.03-0.06,0.05-0.1,0.07C16.83,30.47,16.8,30.48,16.76,30.48L16.76,30.48z"/>
<path class="st15" d="M16.5,33.41c0.05,0,0.09,0,0.14-0.01c0.05-0.01,0.09-0.02,0.14-0.04c0.04-0.02,0.09-0.04,0.12-0.07
	c0.04-0.03,0.08-0.06,0.11-0.09c0.03-0.03,0.06-0.07,0.09-0.11c0.03-0.04,0.05-0.08,0.07-0.13c0.02-0.04,0.03-0.09,0.04-0.14
	c0.01-0.05,0.01-0.09,0.01-0.14s0-0.09-0.01-0.14c-0.01-0.05-0.02-0.09-0.04-0.14c-0.02-0.04-0.04-0.09-0.07-0.12
	c-0.03-0.04-0.06-0.08-0.09-0.11c-0.03-0.03-0.07-0.06-0.11-0.09c-0.04-0.03-0.08-0.05-0.13-0.07c-0.04-0.02-0.09-0.03-0.14-0.04
	c-0.05-0.01-0.09-0.01-0.14-0.01c-0.05,0-0.09,0-0.14,0.01c-0.05,0.01-0.09,0.02-0.14,0.04s-0.09,0.04-0.12,0.07
	c-0.04,0.03-0.08,0.06-0.11,0.09c-0.03,0.03-0.06,0.07-0.09,0.11c-0.03,0.04-0.05,0.08-0.07,0.13c-0.02,0.04-0.03,0.09-0.04,0.14
	c-0.01,0.05-0.01,0.09-0.01,0.14c0,0.05,0,0.09,0.01,0.14c0.01,0.05,0.02,0.09,0.04,0.14c0.02,0.04,0.04,0.08,0.07,0.12
	c0.03,0.04,0.06,0.08,0.09,0.11c0.03,0.03,0.07,0.06,0.11,0.09c0.04,0.03,0.08,0.05,0.12,0.07c0.04,0.02,0.09,0.03,0.14,0.04
	S16.46,33.4,16.5,33.41z M16.5,32.38c0.04,0,0.08,0.01,0.12,0.02c0.04,0.02,0.07,0.04,0.1,0.07c0.03,0.03,0.05,0.06,0.07,0.1
	c0.02,0.04,0.02,0.08,0.02,0.12c0,0.04-0.01,0.08-0.02,0.12c-0.02,0.04-0.04,0.07-0.07,0.1c-0.03,0.03-0.06,0.05-0.1,0.07
	c-0.04,0.02-0.08,0.02-0.12,0.02c-0.04,0-0.08-0.01-0.12-0.02c-0.04-0.02-0.07-0.04-0.1-0.07c-0.03-0.03-0.05-0.06-0.07-0.1
	c-0.02-0.04-0.02-0.08-0.02-0.12c0-0.04,0.01-0.08,0.02-0.12c0.02-0.04,0.04-0.07,0.07-0.1c0.03-0.03,0.06-0.05,0.1-0.07
	C16.43,32.39,16.46,32.38,16.5,32.38z"/>
<path class="st15" d="M16.53,34.56c-0.05,0-0.09,0-0.14,0.01c-0.05,0.01-0.09,0.02-0.14,0.04s-0.09,0.04-0.12,0.07
	c-0.04,0.03-0.08,0.06-0.11,0.09c-0.03,0.03-0.06,0.07-0.09,0.11c-0.03,0.04-0.05,0.08-0.07,0.12c-0.02,0.04-0.03,0.09-0.04,0.14
	c-0.01,0.05-0.01,0.09-0.01,0.14s0,0.09,0.01,0.14c0.01,0.05,0.02,0.09,0.04,0.14c0.02,0.04,0.04,0.09,0.07,0.12
	c0.03,0.04,0.06,0.08,0.09,0.11s0.07,0.06,0.11,0.09s0.08,0.05,0.12,0.07c0.04,0.02,0.09,0.03,0.14,0.04
	c0.05,0.01,0.09,0.01,0.14,0.01s0.09,0,0.14-0.01c0.05-0.01,0.09-0.02,0.14-0.04c0.04-0.02,0.09-0.04,0.12-0.07s0.08-0.06,0.11-0.09
	c0.03-0.03,0.06-0.07,0.09-0.11c0.03-0.04,0.05-0.08,0.07-0.12c0.02-0.04,0.03-0.09,0.04-0.14c0.01-0.05,0.01-0.09,0.01-0.14
	s0-0.09-0.01-0.14c-0.01-0.05-0.02-0.09-0.04-0.14c-0.02-0.04-0.04-0.09-0.07-0.12c-0.03-0.04-0.06-0.08-0.09-0.11
	c-0.03-0.03-0.07-0.06-0.11-0.09c-0.04-0.03-0.08-0.05-0.12-0.07c-0.04-0.02-0.09-0.03-0.14-0.04
	C16.63,34.57,16.58,34.56,16.53,34.56z M16.53,35.59c-0.04,0-0.08-0.01-0.12-0.02c-0.04-0.02-0.07-0.04-0.1-0.07
	c-0.03-0.03-0.05-0.06-0.07-0.1c-0.01-0.04-0.02-0.08-0.02-0.12c0-0.04,0.01-0.08,0.02-0.12c0.02-0.04,0.04-0.07,0.07-0.1
	c0.03-0.03,0.06-0.05,0.1-0.07c0.04-0.01,0.08-0.02,0.12-0.02c0.04,0,0.08,0.01,0.12,0.02c0.04,0.02,0.07,0.04,0.1,0.07
	c0.03,0.03,0.05,0.06,0.07,0.1c0.02,0.04,0.02,0.08,0.02,0.12c0,0.04-0.01,0.08-0.02,0.12s-0.04,0.07-0.07,0.1
	c-0.03,0.03-0.06,0.05-0.1,0.07C16.61,35.58,16.57,35.59,16.53,35.59z"/>
<path class="st2" d="M17.38,22.1c0,0.05-0.01,0.09-0.02,0.14c-0.01,0.04-0.03,0.08-0.06,0.12c-0.02,0.03-0.05,0.06-0.09,0.08
	s-0.07,0.03-0.1,0.03c-0.04,0-0.07-0.01-0.1-0.03c-0.03-0.02-0.06-0.04-0.09-0.08c-0.03-0.03-0.04-0.07-0.06-0.12
	c-0.01-0.04-0.02-0.09-0.02-0.14c0-0.05,0.01-0.09,0.02-0.14c0.01-0.04,0.03-0.08,0.06-0.12c0.02-0.03,0.05-0.06,0.09-0.08
	c0.03-0.02,0.07-0.03,0.1-0.03c0.03,0,0.07,0.01,0.1,0.03c0.03,0.02,0.06,0.04,0.09,0.08c0.02,0.03,0.04,0.07,0.06,0.12
	C17.37,22,17.38,22.05,17.38,22.1z"/>
<path class="st2" d="M16.81,22.41c0,0.02,0,0.04-0.01,0.06c-0.01,0.02-0.02,0.04-0.03,0.05c-0.01,0.01-0.03,0.03-0.05,0.03
	s-0.04,0.01-0.06,0.01c-0.02,0-0.04,0-0.06-0.01c-0.02-0.01-0.04-0.02-0.05-0.03c-0.02-0.02-0.03-0.03-0.03-0.05
	c-0.01-0.02-0.01-0.04-0.01-0.06c0-0.02,0-0.04,0.01-0.06c0.01-0.02,0.02-0.04,0.03-0.05c0.02-0.02,0.03-0.03,0.05-0.03
	c0.02-0.01,0.04-0.01,0.06-0.01c0.02,0,0.04,0,0.06,0.01c0.02,0.01,0.04,0.02,0.05,0.03c0.02,0.02,0.03,0.03,0.03,0.05
	C16.8,22.37,16.81,22.39,16.81,22.41z"/>
<g>
	<g transform="translate(91.992794, 88.992957)">
		<g>
			<path class="st17" d="M-81.02-83.48l-1,0.57l1.92,3.37l-0.82,0.47l-1.92-3.37l-0.99,0.56l-0.39-0.68l2.81-1.6L-81.02-83.48z"/>
		</g>
	</g>
</g>
<g>
	<g transform="translate(121.694971, 72.924787)">
		<g>
			<path class="st17" d="M-107.3-64.53l-0.89,0.32l-1.58-4.39l0.89-0.32L-107.3-64.53z"/>
		</g>
	</g>
</g>
<g>
	<g transform="translate(137.838565, 66.638401)">
		<g>
			<path class="st17" d="M-120.62-60.84l-1.44,0.27l0.35,1.87l-0.93,0.17l-0.86-4.59l2.54-0.48l0.14,0.77l-1.61,0.3l0.22,1.18
				l1.44-0.27L-120.62-60.84z"/>
		</g>
	</g>
</g>
<g>
	<g transform="translate(166.543462, 61.251888)">
		<g>
			<path class="st17" d="M-145.84-55.51l-1.46-0.02l-0.02,1.9l-0.94-0.01l0.06-4.67l2.59,0.03l-0.01,0.78l-1.64-0.02l-0.01,1.2
				l1.47,0.02L-145.84-55.51z"/>
		</g>
	</g>
</g>
<g>
	<g transform="translate(196.40048, 62.186504)">
		<g>
			<path class="st17" d="M-173.98-54.24l-0.93-0.16l0.8-4.6l0.93,0.16L-173.98-54.24z"/>
		</g>
	</g>
</g>
<g>
	<g transform="translate(213.214143, 64.158186)">
		<g>
			<path class="st17" d="M-186.93-54.96l-0.88-0.33l-0.21-3.35l-1.07,2.87l-0.88-0.33l1.64-4.37l0.88,0.33l0.22,3.35l1.07-2.87
				l0.88,0.33L-186.93-54.96z"/>
		</g>
	</g>
</g>
<g>
	<g transform="translate(261.418598, 85.388614)">
		<g>
			<path class="st17" d="M-230.82-74.62c0.12-0.15,0.18-0.29,0.17-0.43c-0.01-0.14-0.08-0.33-0.21-0.57
				c-0.24-0.44-0.37-0.81-0.37-1.13c0-0.31,0.1-0.6,0.31-0.84c0.25-0.3,0.57-0.45,0.93-0.46c0.37,0,0.71,0.14,1.04,0.41
				c0.22,0.18,0.38,0.4,0.47,0.63c0.09,0.24,0.12,0.48,0.07,0.73c-0.05,0.25-0.16,0.48-0.34,0.69l-0.72-0.61
				c0.14-0.17,0.21-0.32,0.21-0.47c0-0.15-0.06-0.28-0.2-0.39c-0.13-0.11-0.26-0.15-0.39-0.14c-0.13,0.01-0.25,0.08-0.36,0.21
				c-0.08,0.1-0.12,0.22-0.11,0.36c0.01,0.15,0.08,0.35,0.21,0.6c0.24,0.42,0.37,0.79,0.37,1.1c0,0.32-0.11,0.62-0.35,0.9
				c-0.26,0.31-0.57,0.47-0.91,0.48c-0.35,0.01-0.69-0.13-1.03-0.42c-0.23-0.19-0.4-0.42-0.51-0.68c-0.11-0.25-0.14-0.51-0.1-0.78
				c0.04-0.27,0.17-0.52,0.37-0.76l0.72,0.61c-0.17,0.21-0.26,0.39-0.26,0.55c0,0.16,0.09,0.32,0.27,0.47
				C-231.28-74.33-231.04-74.36-230.82-74.62z"/>
		</g>
	</g>
</g>
<g>
	<g transform="translate(286.465728, 106.707888)">
		<g>
			<path class="st17" d="M-252.47-93.28l-0.9-1.16l-0.98,0.76l1.06,1.38l-0.62,0.48l-1.64-2.12l3.7-2.85l1.63,2.12l-0.62,0.48
				l-1.06-1.37l-0.88,0.67l0.9,1.16L-252.47-93.28z"/>
		</g>
	</g>
</g>
<g>
	<g transform="translate(304.884232, 130.199477)">
		<g>
			<path class="st17" d="M-269.92-114.35l-0.2-0.42l-1.54,0.73l-0.4-0.85l4.22-1.99l0.64,1.36c0.2,0.43,0.25,0.81,0.14,1.15
				c-0.11,0.34-0.37,0.6-0.78,0.79c-0.56,0.26-1.05,0.25-1.47-0.06l-1.38,1.56l-0.04,0.02l-0.43-0.92L-269.92-114.35z
				 M-269.41-115.1l0.23,0.48c0.08,0.17,0.2,0.27,0.35,0.3c0.15,0.03,0.32,0,0.51-0.08c0.42-0.2,0.56-0.46,0.4-0.79l-0.23-0.5
				L-269.41-115.1z"/>
		</g>
	</g>
</g>
<g>
	<g transform="translate(319.31187, 160.356452)">
		<g>
			<path class="st17" d="M-283.47-140.59l3.48,0.06l0.22,1.03l-4.85-0.35l-0.2-0.96l4.29-2.28l0.22,1.02L-283.47-140.59z"/>
		</g>
	</g>
</g>
<g>
	<g transform="translate(325.915343, 195.542749)">
		<g>
			<path class="st17" d="M-290.97-172.25l-0.03-0.94l4.67-0.14l0.03,0.94L-290.97-172.25z"/>
		</g>
	</g>
</g>
<g>
	<g transform="translate(327.2244, 212.539216)">
		<g>
			<path class="st17" d="M-291.17-185.06c-0.52-0.1-0.9-0.31-1.13-0.62c-0.23-0.31-0.31-0.72-0.24-1.21
				c0.08-0.52,0.31-0.9,0.69-1.12c0.39-0.23,0.9-0.29,1.53-0.2l0.78,0.11c0.63,0.09,1.1,0.31,1.4,0.65c0.3,0.34,0.41,0.76,0.34,1.28
				c-0.07,0.5-0.27,0.86-0.59,1.08c-0.32,0.22-0.75,0.31-1.28,0.27l0.14-0.94c0.33,0.04,0.56,0.02,0.69-0.05
				c0.14-0.07,0.23-0.23,0.26-0.48c0.04-0.25-0.02-0.44-0.18-0.57c-0.16-0.13-0.44-0.23-0.84-0.29l-0.87-0.13
				c-0.46-0.07-0.78-0.06-0.97,0.01c-0.19,0.08-0.3,0.24-0.33,0.49c-0.04,0.24,0,0.42,0.1,0.53c0.11,0.11,0.31,0.2,0.63,0.26
				L-291.17-185.06z"/>
		</g>
	</g>
</g>
<g>
	<g transform="translate(321.940956, 246.774943)">
		<g>
			<path class="st17" d="M-286.57-216.05l0.52-1.37l-1.16-0.44l-0.62,1.62l-0.73-0.28l0.96-2.5l4.36,1.67l-0.96,2.5l-0.73-0.28
				l0.62-1.62l-1.03-0.4l-0.52,1.37L-286.57-216.05z"/>
		</g>
	</g>
</g>
</svg>
